<svg xmlns="http://www.w3.org/2000/svg" xmlns:xlink="http://www.w3.org/1999/xlink" width="215" zoomAndPan="magnify" viewBox="0 0 161.25 80.249996" height="107" preserveAspectRatio="xMidYMid meet" version="1.0"><defs><clipPath id="id1"><path d="M 0.394531 64 L 160 64 L 160 74 L 0.394531 74 Z M 0.394531 64 " clip-rule="nonzero"/></clipPath><clipPath id="id2"><path d="M 74 0.0390625 L 77 0.0390625 L 77 8 L 74 8 Z M 74 0.0390625 " clip-rule="nonzero"/></clipPath><clipPath id="id3"><path d="M 17 70 L 147 70 L 147 79.507812 L 17 79.507812 Z M 17 70 " clip-rule="nonzero"/></clipPath></defs><g clip-path="url(#id1)"><path fill="#e76f51" d="M 159.796875 70.4375 C 159.363281 68.976562 158.933594 67.546875 158.5 66.082031 C 158.203125 65.152344 157.734375 64.519531 156.738281 64.253906 C 154.945312 63.789062 153.050781 65.121094 151.957031 66.414062 C 150.757812 67.8125 148.898438 72.234375 146.441406 70.738281 C 145.042969 69.90625 144.710938 67.710938 143.683594 66.480469 C 142.652344 65.21875 141.058594 64.722656 139.53125 65.417969 C 137.4375 66.414062 136.804688 68.808594 135.109375 70.207031 C 134.445312 70.769531 133.683594 71.234375 132.851562 70.769531 C 132.054688 70.339844 132.085938 69.640625 131.855469 68.808594 C 131.65625 67.976562 131.324219 67.246094 130.726562 66.617188 C 129.59375 65.417969 127.902344 64.820312 126.273438 64.886719 C 124.746094 64.953125 123.28125 65.652344 122.386719 66.914062 C 121.621094 68.011719 121.390625 69.507812 120.226562 70.273438 C 119.195312 70.9375 117.601562 70.902344 116.605469 70.171875 C 115.042969 68.976562 115.109375 66.582031 113.8125 65.121094 C 112.683594 63.855469 110.921875 63.691406 109.5625 64.6875 C 107.832031 65.949219 107.566406 68.078125 106.539062 69.804688 C 105.140625 72.234375 103.414062 71.234375 102.320312 69.375 C 101.023438 67.214844 99.59375 63.589844 96.40625 64.421875 C 93.347656 65.21875 93.117188 69.042969 90.921875 70.769531 C 89.128906 72.167969 88.066406 69.804688 87.5 68.410156 C 86.96875 67.046875 86.402344 65.550781 85.074219 64.789062 C 83.378906 63.824219 81.554688 64.585938 80.257812 65.851562 C 78.730469 67.378906 77.734375 70.804688 75.375 71.203125 C 73.28125 71.566406 72.582031 68.578125 71.917969 67.179688 C 71.320312 65.851562 70.457031 64.585938 68.929688 64.289062 C 65.738281 63.65625 64.441406 67.546875 62.882812 69.472656 C 62.417969 70.039062 61.851562 70.636719 61.054688 70.738281 C 59.59375 70.9375 58.660156 69.40625 58.03125 68.34375 C 57 66.648438 55.9375 64.6875 53.84375 64.121094 C 51.949219 63.625 50.589844 64.886719 50.023438 66.617188 C 49.359375 68.675781 48.328125 70.804688 45.804688 70.835938 C 43.3125 70.871094 43.378906 68.011719 42.613281 66.316406 C 41.851562 64.652344 40.15625 63.855469 38.394531 64.519531 C 36.167969 65.351562 35.472656 67.578125 34.308594 69.40625 C 32.414062 72.433594 29.324219 71.632812 27.597656 69.074219 C 25.9375 66.648438 23.808594 62.992188 20.320312 65.054688 C 18.0625 66.382812 15.671875 72.597656 12.515625 70.070312 C 11.117188 68.941406 10.386719 67.214844 8.859375 66.183594 C 7.199219 65.085938 5.203125 65.285156 3.644531 66.480469 C 1.75 67.910156 1.152344 70.304688 0.652344 72.5 C 0.421875 73.527344 2.015625 73.996094 2.246094 72.929688 C 2.746094 70.636719 4.339844 65.519531 7.695312 67.414062 C 9.292969 68.308594 10.054688 70.207031 11.449219 71.335938 C 14.242188 73.628906 16.832031 71.46875 18.628906 69.175781 C 19.523438 68.011719 20.652344 66.183594 22.28125 66.117188 C 24.308594 66.050781 25.304688 68.675781 26.269531 70.070312 C 27.296875 71.566406 28.59375 72.832031 30.488281 73.0625 C 32.449219 73.296875 34.175781 72.433594 35.339844 70.871094 C 36.035156 69.90625 36.46875 68.777344 37.101562 67.777344 C 37.929688 66.515625 39.890625 64.921875 41.019531 66.816406 C 41.949219 68.34375 41.71875 70.304688 43.179688 71.566406 C 45.738281 73.792969 49.859375 71.632812 51.054688 68.941406 C 51.453125 68.011719 51.519531 66.015625 52.683594 65.683594 C 54.011719 65.285156 55.339844 67.015625 55.90625 67.976562 C 56.867188 69.574219 57.730469 71.535156 59.625 72.199219 C 62.882812 73.363281 64.574219 69.804688 66.039062 67.679688 C 66.933594 66.347656 68.363281 65.054688 69.726562 66.714844 C 70.753906 67.976562 70.988281 69.738281 71.917969 71.070312 C 72.714844 72.234375 73.910156 72.996094 75.375 72.863281 C 77.402344 72.664062 78.796875 70.769531 79.792969 69.175781 C 81.023438 67.246094 83.515625 64.355469 85.242188 67.445312 C 85.972656 68.777344 86.269531 70.40625 87.269531 71.601562 C 89.328125 74.027344 91.953125 72.464844 93.347656 70.304688 C 94.144531 69.074219 94.742188 67.480469 95.90625 66.515625 C 97.367188 65.285156 98.664062 66.449219 99.496094 67.777344 C 100.757812 69.839844 101.917969 73.363281 104.976562 72.964844 C 106.835938 72.730469 107.832031 71.003906 108.53125 69.441406 C 108.964844 68.445312 109.296875 67.347656 110.027344 66.515625 C 111.15625 65.21875 112.351562 65.683594 113.050781 67.046875 C 113.847656 68.644531 114.113281 70.539062 115.742188 71.601562 C 117.101562 72.53125 118.996094 72.664062 120.492188 71.964844 C 122.652344 71.003906 122.617188 68.542969 124.3125 67.214844 C 125.839844 65.984375 128.566406 66.382812 129.695312 67.976562 C 130.757812 69.472656 130.226562 71.765625 132.320312 72.5 C 134.082031 73.128906 135.972656 71.765625 137.039062 70.472656 C 138.132812 69.140625 140.128906 65.085938 142.21875 67.3125 C 143.316406 68.511719 143.582031 70.304688 144.746094 71.46875 C 145.875 72.632812 147.535156 72.898438 149 72.132812 C 150.992188 71.035156 151.722656 68.910156 153.183594 67.3125 C 153.949219 66.480469 155.476562 65.1875 156.507812 66.117188 C 157.039062 66.582031 157.171875 67.613281 157.371094 68.308594 C 157.601562 69.140625 157.871094 69.972656 158.101562 70.804688 C 158.5 71.898438 160.128906 71.46875 159.796875 70.4375 Z M 159.796875 70.4375 " fill-opacity="1" fill-rule="nonzero"/></g><path fill="#e76f51" d="M 96.96875 41.519531 C 88.863281 38.628906 80.15625 38.0625 72.21875 41.71875 C 64.011719 45.507812 58.128906 53.285156 56.46875 62.160156 C 56.371094 62.625 56.636719 62.960938 57 63.125 C 57.132812 63.324219 57.332031 63.457031 57.664062 63.425781 C 67.996094 62.890625 78.363281 62.625 88.695312 62.558594 C 93.878906 62.527344 99.0625 62.59375 104.210938 62.660156 C 105.675781 62.691406 108.300781 63.292969 109.5625 62.292969 C 110.757812 61.332031 110.292969 59.035156 110.160156 57.742188 C 109.261719 50.230469 104.046875 44.046875 96.96875 41.519531 Z M 96.96875 41.519531 " fill-opacity="1" fill-rule="nonzero"/><path fill="#e76f51" d="M 30.652344 46.074219 C 34.210938 48.066406 37.898438 49.796875 41.71875 51.292969 C 45.304688 52.6875 49.425781 53.453125 52.683594 55.546875 C 52.480469 56.113281 52.316406 56.644531 52.148438 57.207031 C 52.117188 57.207031 52.117188 57.207031 52.082031 57.207031 C 47.53125 56.34375 42.914062 55.578125 38.429688 54.351562 C 38.296875 54.21875 38.128906 54.117188 37.863281 54.085938 C 37.664062 54.085938 37.464844 54.050781 37.265625 54.050781 C 36.300781 53.984375 36.167969 55.414062 37.03125 55.679688 C 41.816406 57.074219 46.734375 57.875 51.617188 58.769531 C 51.652344 58.769531 51.683594 58.769531 51.71875 58.769531 C 51.585938 59.4375 51.453125 60.101562 51.351562 60.796875 C 44.773438 60.132812 38.164062 59.46875 31.585938 58.804688 C 31.320312 58.40625 30.753906 58.171875 30.320312 58.636719 C 30.222656 58.738281 30.121094 58.835938 30.023438 58.9375 C 29.492188 59.503906 29.890625 60.300781 30.621094 60.367188 C 37.566406 61.0625 44.507812 61.761719 51.417969 62.460938 C 51.851562 62.859375 52.816406 62.660156 52.882812 61.863281 C 53.8125 50.660156 63.148438 40.257812 73.480469 36.601562 C 79.0625 34.640625 85.207031 34.273438 90.921875 35.871094 C 96.570312 37.433594 102.121094 40.820312 106.472656 44.777344 C 111.421875 49.296875 114.910156 55.546875 114.34375 62.394531 C 114.277344 63.359375 115.640625 63.457031 115.941406 62.660156 C 123.882812 62.292969 131.789062 61.628906 139.695312 60.664062 C 140.757812 60.53125 140.757812 58.871094 139.695312 59.003906 C 131.855469 59.96875 123.980469 60.632812 116.074219 60.996094 C 116.074219 60.265625 116.039062 59.570312 115.972656 58.835938 C 120.558594 57.640625 125.175781 56.675781 129.792969 55.714844 C 130.824219 55.480469 130.394531 53.886719 129.363281 54.117188 C 124.8125 55.046875 120.257812 56.011719 115.742188 57.175781 C 115.609375 56.378906 115.410156 55.613281 115.175781 54.882812 C 120.957031 52.257812 126.703125 49.628906 132.484375 47.003906 C 133.449219 46.574219 132.617188 45.144531 131.65625 45.574219 C 125.972656 48.167969 120.324219 50.761719 114.644531 53.320312 C 114.144531 52.125 113.582031 50.925781 112.882812 49.828125 C 115.640625 48.300781 118.398438 46.804688 121.191406 45.277344 C 123.980469 43.746094 126.871094 42.316406 129.460938 40.421875 C 130.328125 39.792969 129.496094 38.363281 128.632812 38.992188 C 126.039062 40.886719 123.148438 42.316406 120.359375 43.847656 C 117.570312 45.375 114.777344 46.90625 111.988281 48.433594 C 111.488281 47.703125 110.957031 47.003906 110.359375 46.339844 C 116.671875 41.851562 122.917969 37.230469 129.460938 33.144531 C 130.359375 32.578125 129.527344 31.148438 128.632812 31.714844 C 121.988281 35.871094 115.640625 40.589844 109.230469 45.109375 C 108.730469 44.578125 108.199219 44.046875 107.632812 43.515625 C 108.964844 41.386719 110.957031 39.824219 112.851562 38.195312 C 114.945312 36.367188 117.070312 34.539062 119.164062 32.679688 C 119.960938 31.980469 118.796875 30.816406 118 31.515625 C 115.742188 33.476562 113.480469 35.46875 111.222656 37.433594 C 109.460938 38.960938 107.699219 40.457031 106.40625 42.382812 C 105.609375 41.6875 104.742188 41.054688 103.878906 40.421875 C 109.460938 33.742188 114.910156 26.996094 120.257812 20.113281 C 120.925781 19.285156 119.726562 18.085938 119.097656 18.949219 C 113.679688 25.898438 108.164062 32.746094 102.519531 39.492188 C 101.621094 38.894531 100.691406 38.328125 99.761719 37.832031 C 101.121094 36.367188 102.417969 34.871094 103.679688 33.308594 C 104.246094 32.613281 104.808594 31.914062 105.34375 31.183594 C 105.707031 30.683594 106.105469 30.1875 106.472656 29.6875 C 106.605469 29.519531 106.9375 28.890625 107.167969 28.589844 C 107.203125 28.589844 107.234375 28.589844 107.269531 28.558594 C 107.300781 28.558594 107.335938 28.523438 107.335938 28.523438 C 107.765625 28.390625 108.03125 27.957031 107.898438 27.492188 C 107.898438 27.460938 107.867188 27.425781 107.867188 27.394531 C 107.734375 26.960938 107.300781 26.730469 106.835938 26.828125 C 106.304688 26.960938 106.074219 27.425781 105.742188 27.859375 C 104.875 29.054688 103.980469 30.253906 103.050781 31.414062 C 101.519531 33.34375 99.894531 35.203125 98.199219 37.03125 C 97.566406 36.699219 96.9375 36.402344 96.304688 36.101562 C 100.492188 29.519531 104.3125 22.707031 107.734375 15.726562 C 108.199219 14.761719 106.769531 13.933594 106.304688 14.894531 C 102.851562 21.941406 98.996094 28.824219 94.777344 35.4375 C 94.511719 35.335938 94.246094 35.203125 93.945312 35.105469 C 93.414062 34.90625 92.917969 34.738281 92.382812 34.574219 C 93.347656 32.082031 94.410156 29.652344 95.539062 27.226562 C 96.007812 26.261719 94.542969 25.433594 94.113281 26.394531 C 92.917969 28.921875 91.820312 31.515625 90.789062 34.140625 C 89.925781 33.910156 89.0625 33.742188 88.199219 33.609375 C 88.929688 25.398438 90.324219 17.253906 92.316406 9.246094 C 92.582031 8.214844 90.988281 7.75 90.722656 8.8125 C 88.695312 16.890625 87.335938 25.132812 86.570312 33.410156 C 85.804688 33.34375 85.007812 33.277344 84.210938 33.277344 C 84.011719 26.628906 84.144531 20.015625 84.578125 13.398438 C 84.644531 12.335938 82.980469 12.335938 82.914062 13.398438 C 82.484375 20.015625 82.351562 26.664062 82.550781 33.308594 C 81.320312 33.34375 80.089844 33.476562 78.894531 33.675781 C 77.898438 25.464844 77.234375 17.222656 76.835938 8.945312 C 76.800781 7.882812 75.140625 7.882812 75.175781 8.945312 C 75.539062 17.324219 76.238281 25.664062 77.265625 33.976562 C 76.703125 34.109375 76.171875 34.207031 75.605469 34.375 C 73.644531 28.390625 71.6875 22.375 69.726562 16.390625 C 69.394531 15.394531 67.796875 15.828125 68.132812 16.824219 C 70.089844 22.839844 72.050781 28.855469 74.011719 34.839844 C 73.414062 35.039062 72.847656 35.238281 72.25 35.46875 C 68.398438 28.359375 64.742188 21.144531 61.285156 13.800781 C 60.820312 12.835938 59.394531 13.667969 59.859375 14.628906 C 63.28125 21.875 66.902344 29.054688 70.722656 36.101562 C 69.691406 36.566406 68.730469 37.066406 67.730469 37.632812 C 64.609375 31.480469 61.085938 25.53125 57.199219 19.847656 C 56.601562 18.984375 55.171875 19.816406 55.773438 20.679688 C 59.691406 26.394531 63.214844 32.3125 66.335938 38.496094 C 65.441406 39.09375 64.542969 39.691406 63.710938 40.390625 C 59.226562 33.542969 54.507812 26.894531 49.492188 20.445312 C 48.828125 19.617188 47.664062 20.777344 48.328125 21.609375 C 53.28125 28.023438 57.996094 34.640625 62.417969 41.453125 C 61.785156 42.019531 61.152344 42.582031 60.589844 43.183594 C 60.554688 43.082031 60.488281 43.015625 60.421875 42.917969 C 57.035156 39.328125 53.511719 35.871094 49.925781 32.480469 C 49.160156 31.746094 47.964844 32.910156 48.761719 33.640625 C 52.347656 37.03125 55.871094 40.488281 59.261719 44.078125 C 59.359375 44.179688 59.460938 44.246094 59.558594 44.277344 C 58.828125 45.078125 58.164062 45.90625 57.5 46.804688 C 53.777344 44.277344 50.15625 41.554688 46.703125 38.660156 C 43.546875 36.003906 40.65625 32.84375 37.03125 30.785156 C 36.101562 30.253906 35.273438 31.679688 36.203125 32.214844 C 40.023438 34.40625 43.113281 37.832031 46.503906 40.621094 C 49.726562 43.28125 53.082031 45.808594 56.570312 48.132812 C 56.136719 48.765625 55.738281 49.398438 55.339844 50.0625 C 49.925781 46.273438 44.410156 42.550781 38.925781 38.859375 C 38.03125 38.261719 37.199219 39.691406 38.097656 40.289062 C 43.613281 43.980469 49.09375 47.703125 54.542969 51.492188 C 54.109375 52.289062 53.710938 53.121094 53.378906 53.953125 C 50.324219 52.089844 46.667969 51.359375 43.347656 50.09375 C 39.292969 48.566406 35.371094 46.707031 31.550781 44.609375 C 30.554688 44.113281 29.722656 45.574219 30.652344 46.074219 Z M 30.652344 46.074219 " fill-opacity="1" fill-rule="nonzero"/><path fill="#e76f51" d="M 28.695312 53.917969 C 30.1875 54.183594 31.683594 54.484375 33.179688 54.75 C 34.210938 54.949219 34.675781 53.351562 33.609375 53.152344 C 32.117188 52.886719 30.621094 52.589844 29.125 52.324219 C 28.097656 52.125 27.664062 53.71875 28.695312 53.917969 Z M 28.695312 53.917969 " fill-opacity="1" fill-rule="nonzero"/><path fill="#e76f51" d="M 43.8125 29.488281 C 44.640625 29.984375 45.40625 30.550781 46.035156 31.28125 C 46.769531 32.082031 47.929688 30.917969 47.199219 30.121094 C 46.46875 29.289062 45.605469 28.589844 44.640625 28.058594 C 43.746094 27.527344 42.878906 28.988281 43.8125 29.488281 Z M 43.8125 29.488281 " fill-opacity="1" fill-rule="nonzero"/><g clip-path="url(#id2)"><path fill="#e76f51" d="M 76.835938 6.585938 C 76.667969 4.757812 76.46875 2.929688 76.304688 1.101562 C 76.203125 0.0390625 74.542969 0.0390625 74.644531 1.101562 C 74.808594 2.929688 75.007812 4.757812 75.175781 6.585938 C 75.273438 7.617188 76.933594 7.648438 76.835938 6.585938 Z M 76.835938 6.585938 " fill-opacity="1" fill-rule="nonzero"/></g><path fill="#e76f51" d="M 84.410156 10.875 C 84.410156 10.042969 84.410156 9.210938 84.410156 8.382812 C 84.410156 7.316406 82.75 7.316406 82.75 8.382812 C 82.75 9.210938 82.75 10.042969 82.75 10.875 C 82.75 11.972656 84.410156 11.972656 84.410156 10.875 Z M 84.410156 10.875 " fill-opacity="1" fill-rule="nonzero"/><path fill="#e76f51" d="M 96.769531 24.234375 C 97.136719 22.773438 97.601562 21.34375 98.132812 19.914062 C 98.53125 18.917969 96.902344 18.484375 96.539062 19.484375 C 95.972656 20.878906 95.539062 22.339844 95.175781 23.804688 C 94.941406 24.835938 96.539062 25.265625 96.769531 24.234375 Z M 96.769531 24.234375 " fill-opacity="1" fill-rule="nonzero"/><path fill="#e76f51" d="M 121.886719 30.617188 C 122.851562 29.6875 123.78125 28.757812 124.746094 27.824219 C 125.507812 27.0625 124.347656 25.898438 123.582031 26.664062 C 122.617188 27.59375 121.6875 28.523438 120.726562 29.453125 C 119.960938 30.1875 121.125 31.347656 121.886719 30.617188 Z M 121.886719 30.617188 " fill-opacity="1" fill-rule="nonzero"/><path fill="#e76f51" d="M 122.019531 17.089844 C 123.015625 15.859375 124.015625 14.628906 124.976562 13.398438 C 125.640625 12.570312 124.480469 11.40625 123.816406 12.238281 C 122.816406 13.464844 121.820312 14.695312 120.859375 15.925781 C 120.160156 16.757812 121.355469 17.921875 122.019531 17.089844 Z M 122.019531 17.089844 " fill-opacity="1" fill-rule="nonzero"/><path fill="#e76f51" d="M 135.175781 46.039062 C 136.90625 45.277344 138.632812 44.511719 140.394531 43.847656 C 141.390625 43.449219 140.957031 41.851562 139.960938 42.25 C 138.066406 42.984375 136.207031 43.78125 134.347656 44.644531 C 133.382812 45.042969 134.214844 46.472656 135.175781 46.039062 Z M 135.175781 46.039062 " fill-opacity="1" fill-rule="nonzero"/><path fill="#e76f51" d="M 132.054688 53.1875 C 131.023438 53.453125 131.457031 55.046875 132.484375 54.78125 C 133.515625 54.515625 134.511719 54.351562 135.574219 54.25 C 136.640625 54.152344 136.640625 52.488281 135.574219 52.589844 C 134.378906 52.6875 133.21875 52.886719 132.054688 53.1875 Z M 132.054688 53.1875 " fill-opacity="1" fill-rule="nonzero"/><g clip-path="url(#id3)"><path fill="#e76f51" d="M 145.710938 75.125 C 143.582031 75.222656 142.820312 74.128906 141.523438 72.730469 C 140.859375 72 139.960938 71.734375 139.03125 72.132812 C 137.835938 72.664062 137.304688 74.0625 136.242188 74.792969 C 135.144531 75.554688 133.714844 75.890625 132.386719 75.757812 C 130.992188 75.621094 129.792969 74.992188 128.863281 73.960938 C 128.066406 73.0625 127.304688 71.933594 126.105469 71.535156 C 125.175781 71.234375 124.28125 71.46875 123.582031 72.101562 C 122.253906 73.296875 121.722656 74.691406 119.726562 75.089844 C 118.132812 75.390625 116.539062 74.957031 115.175781 74.128906 C 113.914062 73.363281 112.917969 71.667969 111.523438 71.234375 C 108.996094 70.472656 108.5 74.0625 106.835938 75.023438 C 105.277344 75.921875 103.414062 75.457031 101.984375 74.527344 C 100.691406 73.695312 99.726562 72.234375 98.265625 71.734375 C 95.804688 70.9375 94.710938 73.230469 93.515625 74.859375 C 92.285156 76.519531 90.191406 77.085938 88.332031 76.15625 C 86.671875 75.324219 86.269531 73.929688 85.339844 72.5 C 84.046875 70.40625 81.621094 71.46875 80.789062 73.363281 C 80.023438 75.089844 79.625 76.652344 77.601562 77.25 C 75.871094 77.785156 74.078125 77.085938 72.882812 75.757812 C 71.488281 74.195312 71.289062 70.273438 68.230469 71.535156 C 65.441406 72.699219 66.371094 77.183594 62.914062 77.316406 C 61.1875 77.382812 59.757812 76.1875 58.828125 74.859375 C 58.097656 73.828125 57.699219 72.464844 56.667969 71.699219 C 54.707031 70.273438 53.046875 71.964844 51.949219 73.527344 C 50.988281 74.890625 50.023438 75.957031 48.230469 76.023438 C 46.234375 76.089844 44.476562 75.023438 43.011719 73.761719 C 42.050781 72.929688 41.152344 71.5 39.757812 71.433594 C 38.660156 71.367188 37.863281 72.199219 37.300781 73.03125 C 36.234375 74.558594 35.539062 75.890625 33.609375 76.421875 C 31.617188 77.019531 29.855469 76.289062 28.363281 74.992188 C 26.203125 73.128906 23.976562 70.238281 20.753906 70.636719 C 18.292969 70.9375 16.535156 73.460938 17.628906 75.757812 C 18.09375 76.71875 19.523438 75.890625 19.058594 74.925781 C 18.558594 73.894531 19.425781 72.832031 20.355469 72.464844 C 21.21875 72.132812 22.117188 72.332031 22.914062 72.730469 C 24.441406 73.429688 25.570312 74.757812 26.800781 75.855469 C 28.660156 77.550781 30.820312 78.679688 33.378906 78.214844 C 36.003906 77.71875 37.132812 76.089844 38.59375 74.0625 C 39.257812 73.128906 39.722656 72.929688 40.621094 73.792969 C 41.152344 74.328125 41.683594 74.824219 42.25 75.289062 C 43.34375 76.1875 44.542969 76.953125 45.902344 77.382812 C 48.195312 78.082031 50.789062 77.617188 52.382812 75.757812 C 53.046875 74.957031 53.546875 73.761719 54.375 73.164062 C 55.90625 72.066406 56.96875 75.222656 57.664062 76.15625 C 59.09375 78.050781 61.320312 79.414062 63.746094 78.914062 C 64.808594 78.714844 65.773438 78.183594 66.4375 77.351562 C 67.332031 76.222656 67.300781 74.492188 68.332031 73.496094 C 69.824219 72.035156 70.355469 75.089844 70.953125 76.023438 C 71.652344 77.085938 72.617188 77.984375 73.746094 78.515625 C 75.871094 79.546875 78.53125 79.179688 80.289062 77.585938 C 81.15625 76.785156 81.519531 75.855469 81.953125 74.824219 C 82.316406 73.929688 83.082031 72.332031 84.046875 73.726562 C 84.445312 74.292969 84.644531 74.992188 85.074219 75.554688 C 86.601562 77.585938 89.09375 78.714844 91.621094 78.082031 C 92.78125 77.785156 93.78125 77.152344 94.511719 76.222656 C 95.175781 75.390625 96.007812 73.230469 97.269531 73.230469 C 98.53125 73.230469 100.058594 75.324219 101.089844 75.957031 C 102.21875 76.652344 103.515625 77.152344 104.84375 77.152344 C 105.941406 77.152344 107.035156 76.851562 107.964844 76.1875 C 108.929688 75.488281 109.328125 74.492188 109.992188 73.5625 C 110.625 72.664062 111.222656 72.996094 111.921875 73.660156 C 112.386719 74.128906 112.882812 74.59375 113.414062 74.992188 C 114.546875 75.855469 115.875 76.488281 117.269531 76.753906 C 119.925781 77.21875 122.386719 76.222656 124.015625 74.0625 C 125.640625 71.867188 127.070312 74.824219 128.332031 75.855469 C 129.230469 76.621094 130.328125 77.085938 131.457031 77.316406 C 133.816406 77.785156 136.40625 77.085938 138.101562 75.324219 C 138.699219 74.691406 139.261719 73.230469 140.425781 74.128906 C 140.957031 74.527344 141.289062 75.257812 141.855469 75.691406 C 142.953125 76.519531 144.28125 76.886719 145.675781 76.785156 C 146.773438 76.71875 146.773438 75.058594 145.710938 75.125 Z M 145.710938 75.125 " fill-opacity="1" fill-rule="nonzero"/></g></svg>