<svg xmlns="http://www.w3.org/2000/svg" xmlns:xlink="http://www.w3.org/1999/xlink" width="700" zoomAndPan="magnify" viewBox="0 0 525 276.749989" height="369" preserveAspectRatio="xMidYMid meet" version="1.0"><defs><g/><clipPath id="378adcfe51"><path d="M 75.167969 153 L 269 153 L 269 165 L 75.167969 165 Z M 75.167969 153 " clip-rule="nonzero"/></clipPath><clipPath id="30e27ebef8"><path d="M 165 75.277344 L 169 75.277344 L 169 85 L 165 85 Z M 165 75.277344 " clip-rule="nonzero"/></clipPath><clipPath id="4949859f1b"><path d="M 95 161 L 253 161 L 253 171.941406 L 95 171.941406 Z M 95 161 " clip-rule="nonzero"/></clipPath></defs><g clip-path="url(#378adcfe51)"><path fill="#e76f51" d="M 268.820312 160.867188 C 268.292969 159.089844 267.769531 157.351562 267.246094 155.574219 C 266.882812 154.441406 266.316406 153.675781 265.105469 153.351562 C 262.925781 152.785156 260.625 154.402344 259.292969 155.976562 C 257.839844 157.675781 255.578125 163.050781 252.59375 161.230469 C 250.898438 160.21875 250.492188 157.554688 249.242188 156.058594 C 247.992188 154.523438 246.054688 153.917969 244.195312 154.765625 C 241.652344 155.976562 240.886719 158.886719 238.828125 160.585938 C 238.019531 161.269531 237.09375 161.835938 236.082031 161.269531 C 235.113281 160.746094 235.15625 159.898438 234.871094 158.886719 C 234.628906 157.875 234.226562 156.988281 233.5 156.21875 C 232.128906 154.765625 230.070312 154.039062 228.089844 154.117188 C 226.234375 154.199219 224.457031 155.046875 223.367188 156.582031 C 222.441406 157.917969 222.15625 159.734375 220.746094 160.664062 C 219.492188 161.472656 217.554688 161.433594 216.34375 160.542969 C 214.449219 159.089844 214.527344 156.179688 212.953125 154.402344 C 211.582031 152.867188 209.441406 152.664062 207.789062 153.875 C 205.6875 155.410156 205.367188 157.996094 204.113281 160.097656 C 202.417969 163.050781 200.320312 161.835938 198.988281 159.574219 C 197.414062 156.945312 195.679688 152.542969 191.804688 153.550781 C 188.089844 154.523438 187.808594 159.167969 185.144531 161.269531 C 182.964844 162.96875 181.671875 160.097656 180.984375 158.402344 C 180.339844 156.746094 179.652344 154.925781 178.039062 153.996094 C 175.980469 152.824219 173.761719 153.753906 172.1875 155.289062 C 170.328125 157.148438 169.117188 161.3125 166.253906 161.796875 C 163.710938 162.242188 162.863281 158.605469 162.054688 156.90625 C 161.328125 155.289062 160.277344 153.753906 158.421875 153.390625 C 154.546875 152.625 152.972656 157.351562 151.074219 159.695312 C 150.511719 160.382812 149.824219 161.109375 148.855469 161.230469 C 147.078125 161.472656 145.949219 159.613281 145.183594 158.320312 C 143.929688 156.261719 142.640625 153.875 140.097656 153.1875 C 137.796875 152.582031 136.140625 154.117188 135.453125 156.21875 C 134.648438 158.726562 133.394531 161.3125 130.328125 161.351562 C 127.300781 161.390625 127.382812 157.917969 126.453125 155.855469 C 125.523438 153.835938 123.464844 152.867188 121.328125 153.675781 C 118.621094 154.683594 117.773438 157.390625 116.363281 159.613281 C 114.0625 163.292969 110.308594 162.320312 108.207031 159.210938 C 106.191406 156.261719 103.605469 151.816406 99.367188 154.320312 C 96.625 155.9375 93.71875 163.492188 89.882812 160.421875 C 88.1875 159.046875 87.300781 156.945312 85.441406 155.695312 C 83.425781 154.359375 81.003906 154.601562 79.105469 156.058594 C 76.804688 157.796875 76.078125 160.707031 75.472656 163.371094 C 75.191406 164.625 77.128906 165.191406 77.410156 163.898438 C 78.015625 161.109375 79.953125 154.886719 84.03125 157.191406 C 85.96875 158.28125 86.894531 160.585938 88.589844 161.957031 C 91.980469 164.746094 95.128906 162.121094 97.308594 159.332031 C 98.398438 157.917969 99.773438 155.695312 101.75 155.613281 C 104.210938 155.53125 105.421875 158.726562 106.59375 160.421875 C 107.84375 162.242188 109.417969 163.777344 111.71875 164.058594 C 114.101562 164.34375 116.199219 163.292969 117.613281 161.390625 C 118.460938 160.21875 118.984375 158.847656 119.753906 157.632812 C 120.761719 156.097656 123.144531 154.160156 124.515625 156.460938 C 125.644531 158.320312 125.363281 160.707031 127.140625 162.242188 C 130.246094 164.949219 135.253906 162.320312 136.707031 159.046875 C 137.191406 157.917969 137.269531 155.492188 138.683594 155.089844 C 140.296875 154.601562 141.914062 156.703125 142.597656 157.875 C 143.769531 159.816406 144.820312 162.199219 147.121094 163.007812 C 151.074219 164.421875 153.132812 160.097656 154.910156 157.511719 C 156 155.894531 157.734375 154.320312 159.390625 156.339844 C 160.640625 157.875 160.925781 160.019531 162.054688 161.636719 C 163.023438 163.050781 164.476562 163.980469 166.253906 163.816406 C 168.714844 163.574219 170.410156 161.269531 171.621094 159.332031 C 173.113281 156.988281 176.140625 153.472656 178.242188 157.230469 C 179.128906 158.847656 179.492188 160.828125 180.703125 162.28125 C 183.207031 165.230469 186.394531 163.332031 188.089844 160.707031 C 189.058594 159.210938 189.785156 157.269531 191.199219 156.097656 C 192.972656 154.601562 194.546875 156.019531 195.558594 157.632812 C 197.089844 160.140625 198.503906 164.421875 202.21875 163.9375 C 204.476562 163.65625 205.6875 161.554688 206.535156 159.65625 C 207.0625 158.441406 207.464844 157.109375 208.351562 156.097656 C 209.726562 154.523438 211.179688 155.089844 212.027344 156.746094 C 212.996094 158.683594 213.316406 160.988281 215.296875 162.28125 C 216.949219 163.414062 219.25 163.574219 221.066406 162.726562 C 223.691406 161.554688 223.652344 158.5625 225.710938 156.945312 C 227.566406 155.453125 230.875 155.9375 232.25 157.875 C 233.539062 159.695312 232.894531 162.484375 235.4375 163.371094 C 237.578125 164.140625 239.878906 162.484375 241.167969 160.90625 C 242.5 159.289062 244.921875 154.359375 247.464844 157.070312 C 248.796875 158.523438 249.121094 160.707031 250.535156 162.121094 C 251.90625 163.535156 253.925781 163.855469 255.699219 162.929688 C 258.121094 161.59375 259.011719 159.007812 260.785156 157.070312 C 261.714844 156.058594 263.570312 154.480469 264.824219 155.613281 C 265.46875 156.179688 265.628906 157.433594 265.871094 158.28125 C 266.15625 159.289062 266.476562 160.300781 266.761719 161.3125 C 267.246094 162.644531 269.222656 162.121094 268.820312 160.867188 Z M 268.820312 160.867188 " fill-opacity="1" fill-rule="nonzero"/></g><path fill="#e76f51" d="M 192.488281 125.710938 C 182.640625 122.195312 172.066406 121.507812 162.417969 125.953125 C 152.449219 130.558594 145.304688 140.015625 143.285156 150.804688 C 143.164062 151.371094 143.488281 151.773438 143.929688 151.976562 C 144.09375 152.21875 144.335938 152.378906 144.738281 152.339844 C 157.292969 151.695312 169.886719 151.371094 182.4375 151.289062 C 188.734375 151.25 195.03125 151.328125 201.289062 151.410156 C 203.066406 151.453125 206.253906 152.179688 207.789062 150.964844 C 209.242188 149.792969 208.675781 147.007812 208.515625 145.429688 C 207.425781 136.296875 201.085938 128.78125 192.488281 125.710938 Z M 192.488281 125.710938 " fill-opacity="1" fill-rule="nonzero"/><path fill="#e76f51" d="M 111.921875 131.246094 C 116.242188 133.671875 120.722656 135.773438 125.363281 137.589844 C 129.722656 139.289062 134.726562 140.21875 138.683594 142.761719 C 138.441406 143.449219 138.238281 144.097656 138.039062 144.785156 C 137.996094 144.785156 137.996094 144.785156 137.957031 144.785156 C 132.425781 143.734375 126.816406 142.804688 121.367188 141.308594 C 121.207031 141.148438 121.003906 141.023438 120.679688 140.984375 C 120.4375 140.984375 120.195312 140.945312 119.953125 140.945312 C 118.785156 140.863281 118.621094 142.601562 119.671875 142.925781 C 125.484375 144.621094 131.457031 145.589844 137.390625 146.683594 C 137.433594 146.683594 137.472656 146.683594 137.511719 146.683594 C 137.351562 147.492188 137.191406 148.300781 137.070312 149.148438 C 129.078125 148.339844 121.042969 147.53125 113.050781 146.722656 C 112.730469 146.238281 112.042969 145.957031 111.519531 146.519531 C 111.398438 146.640625 111.277344 146.761719 111.15625 146.886719 C 110.507812 147.570312 110.992188 148.542969 111.882812 148.621094 C 120.316406 149.472656 128.753906 150.320312 137.148438 151.167969 C 137.675781 151.652344 138.84375 151.410156 138.925781 150.441406 C 140.054688 136.824219 151.398438 124.175781 163.953125 119.730469 C 170.734375 117.34375 178.199219 116.898438 185.144531 118.839844 C 192.003906 120.738281 198.746094 124.859375 204.035156 129.667969 C 210.046875 135.164062 214.285156 142.761719 213.601562 151.085938 C 213.519531 152.257812 215.175781 152.378906 215.539062 151.410156 C 225.183594 150.964844 234.792969 150.15625 244.398438 148.984375 C 245.691406 148.824219 245.691406 146.804688 244.398438 146.964844 C 234.871094 148.136719 225.304688 148.945312 215.699219 149.390625 C 215.699219 148.5 215.660156 147.652344 215.578125 146.761719 C 221.148438 145.308594 226.757812 144.136719 232.371094 142.964844 C 233.621094 142.683594 233.097656 140.742188 231.84375 141.023438 C 226.316406 142.15625 220.785156 143.328125 215.296875 144.742188 C 215.132812 143.773438 214.890625 142.84375 214.609375 141.953125 C 221.632812 138.761719 228.617188 135.570312 235.640625 132.378906 C 236.808594 131.851562 235.800781 130.113281 234.628906 130.640625 C 227.726562 133.792969 220.867188 136.945312 213.964844 140.054688 C 213.359375 138.601562 212.671875 137.144531 211.824219 135.8125 C 215.175781 133.953125 218.523438 132.136719 221.914062 130.277344 C 225.304688 128.417969 228.816406 126.679688 231.964844 124.375 C 233.015625 123.609375 232.007812 121.871094 230.957031 122.636719 C 227.808594 124.941406 224.296875 126.679688 220.90625 128.539062 C 217.515625 130.398438 214.125 132.257812 210.734375 134.113281 C 210.128906 133.226562 209.484375 132.378906 208.757812 131.570312 C 216.425781 126.113281 224.015625 120.496094 231.964844 115.527344 C 233.054688 114.839844 232.046875 113.101562 230.957031 113.789062 C 222.882812 118.839844 215.175781 124.578125 207.382812 130.074219 C 206.777344 129.425781 206.132812 128.78125 205.445312 128.132812 C 207.0625 125.546875 209.484375 123.648438 211.785156 121.667969 C 214.328125 119.445312 216.910156 117.222656 219.453125 114.960938 C 220.421875 114.113281 219.007812 112.699219 218.039062 113.546875 C 215.296875 115.929688 212.550781 118.355469 209.804688 120.738281 C 207.667969 122.597656 205.527344 124.417969 203.953125 126.761719 C 202.984375 125.910156 201.933594 125.144531 200.886719 124.375 C 207.667969 116.253906 214.285156 108.050781 220.785156 99.683594 C 221.59375 98.675781 220.140625 97.21875 219.371094 98.269531 C 212.792969 106.714844 206.09375 115.042969 199.230469 123.246094 C 198.140625 122.515625 197.011719 121.832031 195.878906 121.222656 C 197.535156 119.445312 199.109375 117.628906 200.644531 115.726562 C 201.328125 114.878906 202.015625 114.03125 202.660156 113.140625 C 203.105469 112.535156 203.589844 111.929688 204.035156 111.324219 C 204.195312 111.121094 204.597656 110.351562 204.882812 109.988281 C 204.921875 109.988281 204.960938 109.988281 205.003906 109.949219 C 205.042969 109.949219 205.082031 109.910156 205.082031 109.910156 C 205.609375 109.746094 205.929688 109.222656 205.769531 108.65625 C 205.769531 108.617188 205.730469 108.574219 205.730469 108.535156 C 205.566406 108.007812 205.042969 107.726562 204.476562 107.847656 C 203.832031 108.007812 203.550781 108.574219 203.144531 109.101562 C 202.097656 110.554688 201.007812 112.011719 199.875 113.425781 C 198.019531 115.769531 196.042969 118.03125 193.984375 120.253906 C 193.214844 119.851562 192.449219 119.484375 191.683594 119.121094 C 196.769531 111.121094 201.410156 102.835938 205.566406 94.351562 C 206.132812 93.179688 204.398438 92.167969 203.832031 93.339844 C 199.632812 101.90625 194.953125 110.273438 189.824219 118.3125 C 189.503906 118.191406 189.179688 118.03125 188.816406 117.910156 C 188.171875 117.667969 187.566406 117.464844 186.917969 117.265625 C 188.089844 114.234375 189.382812 111.28125 190.753906 108.332031 C 191.320312 107.160156 189.542969 106.152344 189.019531 107.324219 C 187.566406 110.394531 186.234375 113.546875 184.980469 116.738281 C 183.933594 116.457031 182.882812 116.253906 181.832031 116.089844 C 182.722656 106.109375 184.417969 96.210938 186.839844 86.46875 C 187.160156 85.21875 185.222656 84.652344 184.902344 85.945312 C 182.4375 95.765625 180.785156 105.785156 179.855469 115.847656 C 178.925781 115.769531 177.957031 115.6875 176.988281 115.6875 C 176.746094 107.605469 176.910156 99.5625 177.433594 91.523438 C 177.515625 90.230469 175.496094 90.230469 175.414062 91.523438 C 174.890625 99.5625 174.730469 107.644531 174.972656 115.726562 C 173.476562 115.769531 171.984375 115.929688 170.53125 116.171875 C 169.320312 106.191406 168.511719 96.167969 168.027344 86.105469 C 167.988281 84.8125 165.96875 84.8125 166.011719 86.105469 C 166.453125 96.289062 167.300781 106.433594 168.554688 116.535156 C 167.867188 116.699219 167.222656 116.820312 166.535156 117.019531 C 164.152344 109.746094 161.773438 102.433594 159.390625 95.160156 C 158.988281 93.945312 157.050781 94.472656 157.453125 95.683594 C 159.835938 103 162.214844 110.3125 164.597656 117.585938 C 163.871094 117.828125 163.183594 118.070312 162.457031 118.355469 C 157.777344 109.707031 153.335938 100.9375 149.136719 92.007812 C 148.574219 90.835938 146.835938 91.84375 147.402344 93.015625 C 151.558594 101.828125 155.960938 110.554688 160.601562 119.121094 C 159.351562 119.6875 158.179688 120.292969 156.96875 120.980469 C 153.175781 113.503906 148.894531 106.273438 144.171875 99.363281 C 143.445312 98.3125 141.710938 99.320312 142.4375 100.371094 C 147.199219 107.324219 151.480469 114.515625 155.273438 122.03125 C 154.183594 122.757812 153.09375 123.488281 152.085938 124.335938 C 146.636719 116.011719 140.902344 107.929688 134.808594 100.089844 C 134 99.078125 132.589844 100.492188 133.394531 101.503906 C 139.410156 109.304688 145.140625 117.34375 150.511719 125.628906 C 149.742188 126.316406 148.976562 127.003906 148.289062 127.730469 C 148.25 127.609375 148.167969 127.527344 148.089844 127.40625 C 143.972656 123.042969 139.691406 118.839844 135.332031 114.71875 C 134.40625 113.828125 132.953125 115.242188 133.921875 116.132812 C 138.28125 120.253906 142.558594 124.457031 146.675781 128.820312 C 146.796875 128.941406 146.917969 129.023438 147.039062 129.0625 C 146.152344 130.035156 145.34375 131.042969 144.535156 132.136719 C 140.015625 129.0625 135.617188 125.75 131.417969 122.234375 C 127.582031 119 124.070312 115.164062 119.671875 112.65625 C 118.542969 112.011719 117.53125 113.746094 118.664062 114.394531 C 123.304688 117.0625 127.058594 121.222656 131.175781 124.617188 C 135.089844 127.851562 139.167969 130.921875 143.40625 133.75 C 142.882812 134.519531 142.398438 135.285156 141.914062 136.09375 C 135.332031 131.488281 128.632812 126.960938 121.972656 122.476562 C 120.882812 121.75 119.875 123.488281 120.964844 124.214844 C 127.664062 128.699219 134.324219 133.226562 140.945312 137.832031 C 140.417969 138.800781 139.933594 139.8125 139.53125 140.824219 C 135.816406 138.558594 131.378906 137.671875 127.339844 136.136719 C 122.417969 134.277344 117.652344 132.011719 113.011719 129.46875 C 111.800781 128.863281 110.792969 130.640625 111.921875 131.246094 Z M 111.921875 131.246094 " fill-opacity="1" fill-rule="nonzero"/><path fill="#e76f51" d="M 109.539062 140.78125 C 111.355469 141.105469 113.171875 141.46875 114.988281 141.792969 C 116.242188 142.035156 116.804688 140.097656 115.515625 139.851562 C 113.699219 139.53125 111.882812 139.167969 110.066406 138.84375 C 108.8125 138.601562 108.289062 140.539062 109.539062 140.78125 Z M 109.539062 140.78125 " fill-opacity="1" fill-rule="nonzero"/><path fill="#e76f51" d="M 127.90625 111.082031 C 128.914062 111.6875 129.84375 112.375 130.609375 113.261719 C 131.5 114.234375 132.910156 112.820312 132.023438 111.847656 C 131.136719 110.839844 130.085938 109.988281 128.914062 109.34375 C 127.824219 108.695312 126.777344 110.476562 127.90625 111.082031 Z M 127.90625 111.082031 " fill-opacity="1" fill-rule="nonzero"/><g clip-path="url(#30e27ebef8)"><path fill="#e76f51" d="M 168.027344 83.238281 C 167.828125 81.015625 167.585938 78.792969 167.382812 76.570312 C 167.261719 75.277344 165.242188 75.277344 165.363281 76.570312 C 165.566406 78.792969 165.808594 81.015625 166.011719 83.238281 C 166.132812 84.492188 168.148438 84.53125 168.027344 83.238281 Z M 168.027344 83.238281 " fill-opacity="1" fill-rule="nonzero"/></g><path fill="#e76f51" d="M 177.230469 88.449219 C 177.230469 87.441406 177.230469 86.429688 177.230469 85.421875 C 177.230469 84.125 175.214844 84.125 175.214844 85.421875 C 175.214844 86.429688 175.214844 87.441406 175.214844 88.449219 C 175.214844 89.785156 177.230469 89.785156 177.230469 88.449219 Z M 177.230469 88.449219 " fill-opacity="1" fill-rule="nonzero"/><path fill="#e76f51" d="M 192.246094 104.695312 C 192.691406 102.917969 193.257812 101.179688 193.902344 99.441406 C 194.386719 98.230469 192.410156 97.703125 191.964844 98.917969 C 191.277344 100.613281 190.753906 102.390625 190.308594 104.171875 C 190.027344 105.421875 191.964844 105.949219 192.246094 104.695312 Z M 192.246094 104.695312 " fill-opacity="1" fill-rule="nonzero"/><path fill="#e76f51" d="M 222.761719 112.453125 C 223.933594 111.324219 225.0625 110.191406 226.234375 109.058594 C 227.164062 108.132812 225.75 106.714844 224.820312 107.644531 C 223.652344 108.777344 222.519531 109.910156 221.351562 111.039062 C 220.421875 111.929688 221.835938 113.34375 222.761719 112.453125 Z M 222.761719 112.453125 " fill-opacity="1" fill-rule="nonzero"/><path fill="#e76f51" d="M 222.925781 96.007812 C 224.136719 94.511719 225.347656 93.015625 226.515625 91.523438 C 227.324219 90.511719 225.910156 89.097656 225.105469 90.109375 C 223.894531 91.601562 222.683594 93.097656 221.511719 94.59375 C 220.664062 95.605469 222.117188 97.019531 222.925781 96.007812 Z M 222.925781 96.007812 " fill-opacity="1" fill-rule="nonzero"/><path fill="#e76f51" d="M 238.910156 131.207031 C 241.007812 130.277344 243.105469 129.347656 245.246094 128.539062 C 246.457031 128.054688 245.933594 126.113281 244.722656 126.597656 C 242.421875 127.488281 240.160156 128.457031 237.898438 129.507812 C 236.730469 129.992188 237.738281 131.730469 238.910156 131.207031 Z M 238.910156 131.207031 " fill-opacity="1" fill-rule="nonzero"/><path fill="#e76f51" d="M 235.113281 139.894531 C 233.863281 140.21875 234.386719 142.15625 235.640625 141.832031 C 236.890625 141.511719 238.101562 141.308594 239.394531 141.1875 C 240.683594 141.066406 240.683594 139.046875 239.394531 139.167969 C 237.941406 139.289062 236.527344 139.53125 235.113281 139.894531 Z M 235.113281 139.894531 " fill-opacity="1" fill-rule="nonzero"/><g clip-path="url(#4949859f1b)"><path fill="#e76f51" d="M 251.703125 166.566406 C 249.121094 166.6875 248.191406 165.351562 246.617188 163.65625 C 245.8125 162.765625 244.722656 162.441406 243.589844 162.929688 C 242.136719 163.574219 241.492188 165.273438 240.199219 166.160156 C 238.867188 167.089844 237.132812 167.496094 235.519531 167.332031 C 233.824219 167.171875 232.371094 166.402344 231.238281 165.152344 C 230.269531 164.058594 229.34375 162.683594 227.890625 162.199219 C 226.757812 161.835938 225.667969 162.121094 224.820312 162.886719 C 223.207031 164.34375 222.5625 166.039062 220.140625 166.523438 C 218.203125 166.886719 216.265625 166.363281 214.609375 165.351562 C 213.074219 164.421875 211.863281 162.363281 210.167969 161.835938 C 207.101562 160.90625 206.496094 165.273438 204.476562 166.445312 C 202.582031 167.535156 200.320312 166.96875 198.585938 165.835938 C 197.011719 164.828125 195.839844 163.050781 194.0625 162.441406 C 191.078125 161.472656 189.746094 164.261719 188.292969 166.242188 C 186.796875 168.261719 184.253906 168.949219 181.996094 167.816406 C 179.976562 166.808594 179.492188 165.109375 178.363281 163.371094 C 176.789062 160.828125 173.839844 162.121094 172.832031 164.421875 C 171.902344 166.523438 171.417969 168.421875 168.957031 169.152344 C 166.859375 169.796875 164.679688 168.949219 163.226562 167.332031 C 161.53125 165.433594 161.289062 160.664062 157.574219 162.199219 C 154.183594 163.613281 155.3125 169.070312 151.117188 169.230469 C 149.015625 169.3125 147.28125 167.859375 146.152344 166.242188 C 145.261719 164.988281 144.777344 163.332031 143.527344 162.402344 C 141.144531 160.664062 139.128906 162.726562 137.796875 164.625 C 136.625 166.28125 135.453125 167.574219 133.273438 167.65625 C 130.851562 167.738281 128.714844 166.445312 126.9375 164.90625 C 125.765625 163.898438 124.675781 162.160156 122.980469 162.078125 C 121.648438 162 120.679688 163.007812 119.996094 164.019531 C 118.703125 165.878906 117.855469 167.496094 115.515625 168.140625 C 113.09375 168.867188 110.953125 167.980469 109.136719 166.402344 C 106.511719 164.140625 103.808594 160.625 99.894531 161.109375 C 96.90625 161.472656 94.765625 164.542969 96.097656 167.332031 C 96.664062 168.503906 98.398438 167.496094 97.835938 166.324219 C 97.230469 165.070312 98.277344 163.777344 99.410156 163.332031 C 100.457031 162.929688 101.546875 163.171875 102.515625 163.65625 C 104.375 164.503906 105.746094 166.121094 107.238281 167.453125 C 109.5 169.515625 112.125 170.890625 115.230469 170.324219 C 118.421875 169.71875 119.792969 167.738281 121.570312 165.273438 C 122.375 164.140625 122.941406 163.898438 124.03125 164.949219 C 124.675781 165.59375 125.324219 166.203125 126.007812 166.765625 C 127.339844 167.859375 128.792969 168.789062 130.449219 169.3125 C 133.234375 170.160156 136.382812 169.597656 138.320312 167.332031 C 139.128906 166.363281 139.734375 164.90625 140.742188 164.179688 C 142.597656 162.847656 143.890625 166.6875 144.738281 167.816406 C 146.472656 170.121094 149.179688 171.777344 152.125 171.171875 C 153.417969 170.929688 154.585938 170.28125 155.394531 169.273438 C 156.484375 167.898438 156.445312 165.796875 157.695312 164.585938 C 159.511719 162.808594 160.15625 166.523438 160.882812 167.65625 C 161.730469 168.949219 162.902344 170.039062 164.273438 170.6875 C 166.859375 171.941406 170.085938 171.496094 172.226562 169.554688 C 173.277344 168.585938 173.71875 167.453125 174.246094 166.203125 C 174.6875 165.109375 175.617188 163.171875 176.789062 164.867188 C 177.273438 165.554688 177.515625 166.402344 178.039062 167.089844 C 179.894531 169.554688 182.921875 170.929688 185.992188 170.160156 C 187.402344 169.796875 188.613281 169.03125 189.503906 167.898438 C 190.308594 166.886719 191.320312 164.261719 192.851562 164.261719 C 194.386719 164.261719 196.242188 166.808594 197.496094 167.574219 C 198.867188 168.425781 200.441406 169.03125 202.054688 169.03125 C 203.386719 169.03125 204.71875 168.667969 205.851562 167.859375 C 207.019531 167.007812 207.503906 165.796875 208.3125 164.664062 C 209.078125 163.574219 209.804688 163.980469 210.652344 164.785156 C 211.21875 165.351562 211.824219 165.917969 212.46875 166.402344 C 213.84375 167.453125 215.457031 168.222656 217.152344 168.546875 C 220.382812 169.109375 223.367188 167.898438 225.347656 165.273438 C 227.324219 162.605469 229.058594 166.203125 230.59375 167.453125 C 231.683594 168.382812 233.015625 168.949219 234.386719 169.230469 C 237.253906 169.796875 240.402344 168.949219 242.460938 166.808594 C 243.1875 166.039062 243.875 164.261719 245.285156 165.351562 C 245.933594 165.835938 246.335938 166.726562 247.023438 167.25 C 248.355469 168.261719 249.96875 168.707031 251.664062 168.585938 C 252.996094 168.503906 252.996094 166.484375 251.703125 166.566406 Z M 251.703125 166.566406 " fill-opacity="1" fill-rule="nonzero"/></g><g fill="#ffffff" fill-opacity="1"><g transform="translate(269.587062, 148.089418)"><g><path d="M 20.5625 0 L 1.53125 0 L 1.53125 -4 L 8.359375 -10.90625 C 10.378906 -12.976562 11.703125 -14.414062 12.328125 -15.21875 C 12.953125 -16.019531 13.398438 -16.757812 13.671875 -17.4375 C 13.941406 -18.125 14.078125 -18.835938 14.078125 -19.578125 C 14.078125 -20.671875 13.773438 -21.484375 13.171875 -22.015625 C 12.566406 -22.546875 11.765625 -22.8125 10.765625 -22.8125 C 9.710938 -22.8125 8.6875 -22.566406 7.6875 -22.078125 C 6.695312 -21.597656 5.660156 -20.910156 4.578125 -20.015625 L 1.453125 -23.71875 C 2.796875 -24.863281 3.90625 -25.671875 4.78125 -26.140625 C 5.664062 -26.617188 6.628906 -26.984375 7.671875 -27.234375 C 8.710938 -27.492188 9.878906 -27.625 11.171875 -27.625 C 12.867188 -27.625 14.367188 -27.3125 15.671875 -26.6875 C 16.984375 -26.0625 18 -25.191406 18.71875 -24.078125 C 19.4375 -22.960938 19.796875 -21.6875 19.796875 -20.25 C 19.796875 -18.988281 19.570312 -17.804688 19.125 -16.703125 C 18.6875 -15.609375 18.003906 -14.484375 17.078125 -13.328125 C 16.160156 -12.179688 14.535156 -10.539062 12.203125 -8.40625 L 8.703125 -5.109375 L 8.703125 -4.84375 L 20.5625 -4.84375 Z M 20.5625 0 "/></g></g><g transform="translate(291.358378, 148.089418)"><g><path d="M 20.09375 0 L 18.125 -6.484375 L 8.1875 -6.484375 L 6.21875 0 L 0 0 L 9.609375 -27.34375 L 16.671875 -27.34375 L 26.3125 0 Z M 16.75 -11.328125 C 14.914062 -17.191406 13.882812 -20.507812 13.65625 -21.28125 C 13.425781 -22.050781 13.265625 -22.660156 13.171875 -23.109375 C 12.753906 -21.523438 11.578125 -17.597656 9.640625 -11.328125 Z M 16.75 -11.328125 "/></g></g><g transform="translate(317.67392, 148.089418)"><g><path d="M 3.421875 -27.234375 L 11.90625 -27.234375 C 15.757812 -27.234375 18.554688 -26.679688 20.296875 -25.578125 C 22.046875 -24.484375 22.921875 -22.738281 22.921875 -20.34375 C 22.921875 -18.707031 22.539062 -17.367188 21.78125 -16.328125 C 21.019531 -15.285156 20.003906 -14.660156 18.734375 -14.453125 L 18.734375 -14.265625 C 20.460938 -13.878906 21.707031 -13.15625 22.46875 -12.09375 C 23.226562 -11.039062 23.609375 -9.640625 23.609375 -7.890625 C 23.609375 -5.410156 22.710938 -3.472656 20.921875 -2.078125 C 19.128906 -0.691406 16.691406 0 13.609375 0 L 3.421875 0 Z M 9.203125 -16.4375 L 12.546875 -16.4375 C 14.117188 -16.4375 15.253906 -16.675781 15.953125 -17.15625 C 16.648438 -17.644531 17 -18.453125 17 -19.578125 C 17 -20.617188 16.617188 -21.363281 15.859375 -21.8125 C 15.097656 -22.269531 13.890625 -22.5 12.234375 -22.5 L 9.203125 -22.5 Z M 9.203125 -11.859375 L 9.203125 -4.765625 L 12.96875 -4.765625 C 14.550781 -4.765625 15.722656 -5.066406 16.484375 -5.671875 C 17.242188 -6.285156 17.625 -7.21875 17.625 -8.46875 C 17.625 -10.726562 16.007812 -11.859375 12.78125 -11.859375 Z M 9.203125 -11.859375 "/></g></g><g transform="translate(343.300378, 148.089418)"><g/></g><g transform="translate(353.208282, 148.089418)"><g><path d="M 19.5 -7.5625 C 19.5 -5.101562 18.613281 -3.164062 16.84375 -1.75 C 15.070312 -0.332031 12.609375 0.375 9.453125 0.375 C 6.554688 0.375 3.988281 -0.171875 1.75 -1.265625 L 1.75 -6.625 C 3.582031 -5.8125 5.132812 -5.234375 6.40625 -4.890625 C 7.6875 -4.554688 8.851562 -4.390625 9.90625 -4.390625 C 11.175781 -4.390625 12.148438 -4.628906 12.828125 -5.109375 C 13.503906 -5.597656 13.84375 -6.320312 13.84375 -7.28125 C 13.84375 -7.8125 13.691406 -8.285156 13.390625 -8.703125 C 13.085938 -9.117188 12.648438 -9.519531 12.078125 -9.90625 C 11.503906 -10.289062 10.328125 -10.90625 8.546875 -11.75 C 6.878906 -12.53125 5.628906 -13.28125 4.796875 -14 C 3.972656 -14.71875 3.3125 -15.554688 2.8125 -16.515625 C 2.3125 -17.472656 2.0625 -18.59375 2.0625 -19.875 C 2.0625 -22.28125 2.878906 -24.171875 4.515625 -25.546875 C 6.148438 -26.929688 8.40625 -27.625 11.28125 -27.625 C 12.695312 -27.625 14.046875 -27.453125 15.328125 -27.109375 C 16.617188 -26.773438 17.96875 -26.304688 19.375 -25.703125 L 17.5 -21.21875 C 16.050781 -21.8125 14.851562 -22.222656 13.90625 -22.453125 C 12.957031 -22.691406 12.019531 -22.8125 11.09375 -22.8125 C 10 -22.8125 9.160156 -22.554688 8.578125 -22.046875 C 7.992188 -21.535156 7.703125 -20.875 7.703125 -20.0625 C 7.703125 -19.550781 7.820312 -19.101562 8.0625 -18.71875 C 8.300781 -18.34375 8.675781 -17.976562 9.1875 -17.625 C 9.707031 -17.269531 10.925781 -16.632812 12.84375 -15.71875 C 15.394531 -14.5 17.140625 -13.273438 18.078125 -12.046875 C 19.023438 -10.828125 19.5 -9.332031 19.5 -7.5625 Z M 19.5 -7.5625 "/></g></g><g transform="translate(374.216018, 148.089418)"><g><path d="M 7.5 -10.453125 C 7.5 -8.390625 7.835938 -6.828125 8.515625 -5.765625 C 9.191406 -4.710938 10.296875 -4.1875 11.828125 -4.1875 C 13.335938 -4.1875 14.425781 -4.710938 15.09375 -5.765625 C 15.757812 -6.816406 16.09375 -8.378906 16.09375 -10.453125 C 16.09375 -12.515625 15.753906 -14.054688 15.078125 -15.078125 C 14.410156 -16.109375 13.3125 -16.625 11.78125 -16.625 C 10.269531 -16.625 9.175781 -16.113281 8.5 -15.09375 C 7.832031 -14.070312 7.5 -12.523438 7.5 -10.453125 Z M 21.90625 -10.453125 C 21.90625 -7.054688 21.007812 -4.398438 19.21875 -2.484375 C 17.425781 -0.578125 14.9375 0.375 11.75 0.375 C 9.75 0.375 7.984375 -0.0625 6.453125 -0.9375 C 4.929688 -1.8125 3.757812 -3.066406 2.9375 -4.703125 C 2.125 -6.347656 1.71875 -8.265625 1.71875 -10.453125 C 1.71875 -13.847656 2.601562 -16.488281 4.375 -18.375 C 6.15625 -20.269531 8.648438 -21.21875 11.859375 -21.21875 C 13.859375 -21.21875 15.617188 -20.78125 17.140625 -19.90625 C 18.671875 -19.039062 19.847656 -17.789062 20.671875 -16.15625 C 21.492188 -14.53125 21.90625 -12.628906 21.90625 -10.453125 Z M 21.90625 -10.453125 "/></g></g><g transform="translate(397.831097, 148.089418)"><g><path d="M 8.65625 0 L 2.984375 0 L 2.984375 -28.984375 L 8.65625 -28.984375 Z M 8.65625 0 "/></g></g><g transform="translate(409.471022, 148.089418)"><g><path d="M 16.203125 0 L 15.109375 -2.828125 L 14.953125 -2.828125 C 13.992188 -1.628906 13.007812 -0.796875 12 -0.328125 C 10.988281 0.140625 9.671875 0.375 8.046875 0.375 C 6.046875 0.375 4.472656 -0.191406 3.328125 -1.328125 C 2.179688 -2.472656 1.609375 -4.101562 1.609375 -6.21875 C 1.609375 -8.425781 2.378906 -10.054688 3.921875 -11.109375 C 5.460938 -12.160156 7.789062 -12.738281 10.90625 -12.84375 L 14.53125 -12.96875 L 14.53125 -13.875 C 14.53125 -15.988281 13.445312 -17.046875 11.28125 -17.046875 C 9.625 -17.046875 7.671875 -16.539062 5.421875 -15.53125 L 3.53125 -19.375 C 5.925781 -20.625 8.585938 -21.25 11.515625 -21.25 C 14.304688 -21.25 16.445312 -20.640625 17.9375 -19.421875 C 19.425781 -18.203125 20.171875 -16.351562 20.171875 -13.875 L 20.171875 0 Z M 14.53125 -9.640625 L 12.328125 -9.578125 C 10.679688 -9.523438 9.453125 -9.222656 8.640625 -8.671875 C 7.835938 -8.128906 7.4375 -7.300781 7.4375 -6.1875 C 7.4375 -4.582031 8.351562 -3.78125 10.1875 -3.78125 C 11.5 -3.78125 12.550781 -4.15625 13.34375 -4.90625 C 14.132812 -5.664062 14.53125 -6.675781 14.53125 -7.9375 Z M 14.53125 -9.640625 "/></g></g><g transform="translate(432.508761, 148.089418)"><g><path d="M 14.59375 -21.21875 C 15.363281 -21.21875 16.003906 -21.160156 16.515625 -21.046875 L 16.09375 -15.71875 C 15.632812 -15.84375 15.078125 -15.90625 14.421875 -15.90625 C 12.609375 -15.90625 11.191406 -15.4375 10.171875 -14.5 C 9.160156 -13.570312 8.65625 -12.269531 8.65625 -10.59375 L 8.65625 0 L 2.984375 0 L 2.984375 -20.828125 L 7.28125 -20.828125 L 8.125 -17.3125 L 8.40625 -17.3125 C 9.050781 -18.488281 9.921875 -19.429688 11.015625 -20.140625 C 12.109375 -20.859375 13.300781 -21.21875 14.59375 -21.21875 Z M 14.59375 -21.21875 "/></g></g></g><g fill="#ffffff" fill-opacity="1"><g transform="translate(119.235864, 197.553414)"><g><path d="M 0.8125 -1.171875 C 2.164062 -2.253906 3.222656 -3.144531 3.984375 -3.84375 C 4.753906 -4.539062 5.40625 -5.269531 5.9375 -6.03125 C 6.46875 -6.789062 6.734375 -7.539062 6.734375 -8.28125 C 6.734375 -8.96875 6.5625 -9.507812 6.21875 -9.90625 C 5.882812 -10.3125 5.347656 -10.515625 4.609375 -10.515625 C 3.878906 -10.515625 3.3125 -10.285156 2.90625 -9.828125 C 2.507812 -9.378906 2.296875 -8.78125 2.265625 -8.03125 L 0.859375 -8.03125 C 0.898438 -9.21875 1.257812 -10.132812 1.9375 -10.78125 C 2.625 -11.4375 3.507812 -11.765625 4.59375 -11.765625 C 5.6875 -11.765625 6.554688 -11.457031 7.203125 -10.84375 C 7.847656 -10.238281 8.171875 -9.40625 8.171875 -8.34375 C 8.171875 -7.457031 7.90625 -6.59375 7.375 -5.75 C 6.84375 -4.914062 6.242188 -4.179688 5.578125 -3.546875 C 4.910156 -2.921875 4.050781 -2.1875 3 -1.34375 L 8.5 -1.34375 L 8.5 -0.125 L 0.8125 -0.125 Z M 0.8125 -1.171875 "/></g></g></g><g fill="#ffffff" fill-opacity="1"><g transform="translate(128.42535, 197.553414)"><g><path d="M 0.984375 -5.890625 C 0.984375 -7.722656 1.28125 -9.15625 1.875 -10.1875 C 2.476562 -11.21875 3.523438 -11.734375 5.015625 -11.734375 C 6.492188 -11.734375 7.53125 -11.21875 8.125 -10.1875 C 8.726562 -9.15625 9.03125 -7.722656 9.03125 -5.890625 C 9.03125 -4.023438 8.726562 -2.578125 8.125 -1.546875 C 7.53125 -0.515625 6.492188 0 5.015625 0 C 3.523438 0 2.476562 -0.515625 1.875 -1.546875 C 1.28125 -2.578125 0.984375 -4.023438 0.984375 -5.890625 Z M 7.59375 -5.890625 C 7.59375 -6.816406 7.53125 -7.601562 7.40625 -8.25 C 7.28125 -8.894531 7.03125 -9.414062 6.65625 -9.8125 C 6.28125 -10.207031 5.734375 -10.40625 5.015625 -10.40625 C 4.296875 -10.40625 3.742188 -10.207031 3.359375 -9.8125 C 2.984375 -9.414062 2.734375 -8.894531 2.609375 -8.25 C 2.484375 -7.601562 2.421875 -6.816406 2.421875 -5.890625 C 2.421875 -4.929688 2.484375 -4.128906 2.609375 -3.484375 C 2.734375 -2.835938 2.984375 -2.316406 3.359375 -1.921875 C 3.742188 -1.523438 4.296875 -1.328125 5.015625 -1.328125 C 5.734375 -1.328125 6.28125 -1.523438 6.65625 -1.921875 C 7.03125 -2.316406 7.28125 -2.835938 7.40625 -3.484375 C 7.53125 -4.128906 7.59375 -4.929688 7.59375 -5.890625 Z M 7.59375 -5.890625 "/></g></g></g><g fill="#ffffff" fill-opacity="1"><g transform="translate(138.461872, 197.553414)"><g><path d="M 0.8125 -1.171875 C 2.164062 -2.253906 3.222656 -3.144531 3.984375 -3.84375 C 4.753906 -4.539062 5.40625 -5.269531 5.9375 -6.03125 C 6.46875 -6.789062 6.734375 -7.539062 6.734375 -8.28125 C 6.734375 -8.96875 6.5625 -9.507812 6.21875 -9.90625 C 5.882812 -10.3125 5.347656 -10.515625 4.609375 -10.515625 C 3.878906 -10.515625 3.3125 -10.285156 2.90625 -9.828125 C 2.507812 -9.378906 2.296875 -8.78125 2.265625 -8.03125 L 0.859375 -8.03125 C 0.898438 -9.21875 1.257812 -10.132812 1.9375 -10.78125 C 2.625 -11.4375 3.507812 -11.765625 4.59375 -11.765625 C 5.6875 -11.765625 6.554688 -11.457031 7.203125 -10.84375 C 7.847656 -10.238281 8.171875 -9.40625 8.171875 -8.34375 C 8.171875 -7.457031 7.90625 -6.59375 7.375 -5.75 C 6.84375 -4.914062 6.242188 -4.179688 5.578125 -3.546875 C 4.910156 -2.921875 4.050781 -2.1875 3 -1.34375 L 8.5 -1.34375 L 8.5 -0.125 L 0.8125 -0.125 Z M 0.8125 -1.171875 "/></g></g></g><g fill="#ffffff" fill-opacity="1"><g transform="translate(147.651358, 197.553414)"><g><path d="M 0.8125 -1.171875 C 2.164062 -2.253906 3.222656 -3.144531 3.984375 -3.84375 C 4.753906 -4.539062 5.40625 -5.269531 5.9375 -6.03125 C 6.46875 -6.789062 6.734375 -7.539062 6.734375 -8.28125 C 6.734375 -8.96875 6.5625 -9.507812 6.21875 -9.90625 C 5.882812 -10.3125 5.347656 -10.515625 4.609375 -10.515625 C 3.878906 -10.515625 3.3125 -10.285156 2.90625 -9.828125 C 2.507812 -9.378906 2.296875 -8.78125 2.265625 -8.03125 L 0.859375 -8.03125 C 0.898438 -9.21875 1.257812 -10.132812 1.9375 -10.78125 C 2.625 -11.4375 3.507812 -11.765625 4.59375 -11.765625 C 5.6875 -11.765625 6.554688 -11.457031 7.203125 -10.84375 C 7.847656 -10.238281 8.171875 -9.40625 8.171875 -8.34375 C 8.171875 -7.457031 7.90625 -6.59375 7.375 -5.75 C 6.84375 -4.914062 6.242188 -4.179688 5.578125 -3.546875 C 4.910156 -2.921875 4.050781 -2.1875 3 -1.34375 L 8.5 -1.34375 L 8.5 -0.125 L 0.8125 -0.125 Z M 0.8125 -1.171875 "/></g></g></g><g fill="#ffffff" fill-opacity="1"><g transform="translate(156.840845, 197.553414)"><g/></g></g><g fill="#ffffff" fill-opacity="1"><g transform="translate(161.107959, 197.553414)"><g><path d="M 6.34375 -11.25 C 7.414062 -11.25 8.375 -11.003906 9.21875 -10.515625 C 10.0625 -10.035156 10.710938 -9.363281 11.171875 -8.5 C 11.640625 -7.644531 11.875 -6.671875 11.875 -5.578125 C 11.875 -4.484375 11.640625 -3.503906 11.171875 -2.640625 C 10.710938 -1.785156 10.0625 -1.113281 9.21875 -0.625 C 8.375 -0.144531 7.414062 0.09375 6.34375 0.09375 C 5.257812 0.09375 4.296875 -0.144531 3.453125 -0.625 C 2.609375 -1.113281 1.953125 -1.785156 1.484375 -2.640625 C 1.015625 -3.503906 0.78125 -4.484375 0.78125 -5.578125 C 0.78125 -6.671875 1.015625 -7.644531 1.484375 -8.5 C 1.953125 -9.363281 2.609375 -10.035156 3.453125 -10.515625 C 4.296875 -11.003906 5.257812 -11.25 6.34375 -11.25 Z M 6.34375 -10.609375 C 5.351562 -10.609375 4.488281 -10.394531 3.75 -9.96875 C 3.019531 -9.550781 2.457031 -8.960938 2.0625 -8.203125 C 1.664062 -7.453125 1.46875 -6.578125 1.46875 -5.578125 C 1.46875 -4.585938 1.664062 -3.710938 2.0625 -2.953125 C 2.457031 -2.191406 3.019531 -1.597656 3.75 -1.171875 C 4.488281 -0.742188 5.351562 -0.53125 6.34375 -0.53125 C 7.320312 -0.53125 8.175781 -0.742188 8.90625 -1.171875 C 9.632812 -1.597656 10.195312 -2.191406 10.59375 -2.953125 C 10.988281 -3.710938 11.1875 -4.585938 11.1875 -5.578125 C 11.1875 -6.578125 10.988281 -7.453125 10.59375 -8.203125 C 10.195312 -8.960938 9.632812 -9.550781 8.90625 -9.96875 C 8.175781 -10.394531 7.320312 -10.609375 6.34375 -10.609375 Z M 6.3125 -9.28125 C 5.675781 -9.28125 5.09375 -9.128906 4.5625 -8.828125 C 4.03125 -8.535156 3.609375 -8.109375 3.296875 -7.546875 C 2.992188 -6.992188 2.84375 -6.34375 2.84375 -5.59375 C 2.84375 -4.84375 2.992188 -4.1875 3.296875 -3.625 C 3.609375 -3.070312 4.03125 -2.644531 4.5625 -2.34375 C 5.09375 -2.039062 5.675781 -1.890625 6.3125 -1.890625 C 7.113281 -1.890625 7.804688 -2.101562 8.390625 -2.53125 C 8.972656 -2.96875 9.375 -3.546875 9.59375 -4.265625 L 8.25 -4.265625 C 7.925781 -3.378906 7.28125 -2.9375 6.3125 -2.9375 C 5.675781 -2.9375 5.15625 -3.164062 4.75 -3.625 C 4.34375 -4.082031 4.140625 -4.734375 4.140625 -5.578125 C 4.140625 -6.429688 4.34375 -7.085938 4.75 -7.546875 C 5.15625 -8.003906 5.675781 -8.234375 6.3125 -8.234375 C 6.78125 -8.234375 7.1875 -8.117188 7.53125 -7.890625 C 7.875 -7.660156 8.113281 -7.332031 8.25 -6.90625 L 9.59375 -6.90625 C 9.382812 -7.664062 8.988281 -8.25 8.40625 -8.65625 C 7.820312 -9.070312 7.125 -9.28125 6.3125 -9.28125 Z M 6.3125 -9.28125 "/></g></g></g><g fill="#ffffff" fill-opacity="1"><g transform="translate(173.765477, 197.553414)"><g/></g></g><g fill="#ffffff" fill-opacity="1"><g transform="translate(178.032591, 197.553414)"><g><path d="M 8.09375 -11.140625 L 8.09375 -9.953125 L 5.046875 -9.953125 L 5.046875 0 L 3.59375 0 L 3.59375 -9.953125 L 0.546875 -9.953125 L 0.546875 -11.140625 Z M 8.09375 -11.140625 "/></g></g></g><g fill="#ffffff" fill-opacity="1"><g transform="translate(186.678699, 197.553414)"><g><path d="M 5.046875 0.140625 C 4.222656 0.140625 3.476562 -0.0390625 2.8125 -0.40625 C 2.15625 -0.78125 1.632812 -1.3125 1.25 -2 C 0.875 -2.6875 0.6875 -3.484375 0.6875 -4.390625 C 0.6875 -5.285156 0.878906 -6.078125 1.265625 -6.765625 C 1.660156 -7.453125 2.191406 -7.976562 2.859375 -8.34375 C 3.535156 -8.71875 4.285156 -8.90625 5.109375 -8.90625 C 5.941406 -8.90625 6.691406 -8.71875 7.359375 -8.34375 C 8.035156 -7.976562 8.566406 -7.453125 8.953125 -6.765625 C 9.347656 -6.085938 9.546875 -5.296875 9.546875 -4.390625 C 9.546875 -3.484375 9.34375 -2.6875 8.9375 -2 C 8.539062 -1.3125 8 -0.78125 7.3125 -0.40625 C 6.632812 -0.0390625 5.878906 0.140625 5.046875 0.140625 Z M 5.046875 -1.140625 C 5.566406 -1.140625 6.054688 -1.257812 6.515625 -1.5 C 6.972656 -1.75 7.34375 -2.117188 7.625 -2.609375 C 7.914062 -3.097656 8.0625 -3.691406 8.0625 -4.390625 C 8.0625 -5.097656 7.921875 -5.695312 7.640625 -6.1875 C 7.359375 -6.675781 6.992188 -7.039062 6.546875 -7.28125 C 6.097656 -7.519531 5.613281 -7.640625 5.09375 -7.640625 C 4.5625 -7.640625 4.070312 -7.519531 3.625 -7.28125 C 3.1875 -7.039062 2.832031 -6.675781 2.5625 -6.1875 C 2.300781 -5.695312 2.171875 -5.097656 2.171875 -4.390625 C 2.171875 -3.679688 2.300781 -3.082031 2.5625 -2.59375 C 2.820312 -2.101562 3.171875 -1.738281 3.609375 -1.5 C 4.046875 -1.257812 4.523438 -1.140625 5.046875 -1.140625 Z M 5.046875 -1.140625 "/></g></g></g><g fill="#ffffff" fill-opacity="1"><g transform="translate(196.907, 197.553414)"><g><path d="M 0.6875 -4.40625 C 0.6875 -5.300781 0.867188 -6.085938 1.234375 -6.765625 C 1.597656 -7.441406 2.09375 -7.96875 2.71875 -8.34375 C 3.351562 -8.71875 4.066406 -8.90625 4.859375 -8.90625 C 5.535156 -8.90625 6.164062 -8.742188 6.75 -8.421875 C 7.34375 -8.109375 7.796875 -7.695312 8.109375 -7.1875 L 8.109375 -11.828125 L 9.578125 -11.828125 L 9.578125 0 L 8.109375 0 L 8.109375 -1.640625 C 7.816406 -1.117188 7.390625 -0.691406 6.828125 -0.359375 C 6.265625 -0.0234375 5.601562 0.140625 4.84375 0.140625 C 4.0625 0.140625 3.351562 -0.046875 2.71875 -0.421875 C 2.09375 -0.804688 1.597656 -1.34375 1.234375 -2.03125 C 0.867188 -2.726562 0.6875 -3.519531 0.6875 -4.40625 Z M 8.109375 -4.390625 C 8.109375 -5.054688 7.972656 -5.632812 7.703125 -6.125 C 7.441406 -6.613281 7.082031 -6.988281 6.625 -7.25 C 6.175781 -7.507812 5.675781 -7.640625 5.125 -7.640625 C 4.582031 -7.640625 4.085938 -7.507812 3.640625 -7.25 C 3.191406 -7 2.832031 -6.628906 2.5625 -6.140625 C 2.300781 -5.648438 2.171875 -5.070312 2.171875 -4.40625 C 2.171875 -3.738281 2.300781 -3.15625 2.5625 -2.65625 C 2.832031 -2.164062 3.191406 -1.789062 3.640625 -1.53125 C 4.085938 -1.269531 4.582031 -1.140625 5.125 -1.140625 C 5.675781 -1.140625 6.175781 -1.269531 6.625 -1.53125 C 7.082031 -1.789062 7.441406 -2.164062 7.703125 -2.65625 C 7.972656 -3.15625 8.109375 -3.734375 8.109375 -4.390625 Z M 8.109375 -4.390625 "/></g></g></g><g fill="#ffffff" fill-opacity="1"><g transform="translate(207.710648, 197.553414)"><g><path d="M 5.046875 0.140625 C 4.222656 0.140625 3.476562 -0.0390625 2.8125 -0.40625 C 2.15625 -0.78125 1.632812 -1.3125 1.25 -2 C 0.875 -2.6875 0.6875 -3.484375 0.6875 -4.390625 C 0.6875 -5.285156 0.878906 -6.078125 1.265625 -6.765625 C 1.660156 -7.453125 2.191406 -7.976562 2.859375 -8.34375 C 3.535156 -8.71875 4.285156 -8.90625 5.109375 -8.90625 C 5.941406 -8.90625 6.691406 -8.71875 7.359375 -8.34375 C 8.035156 -7.976562 8.566406 -7.453125 8.953125 -6.765625 C 9.347656 -6.085938 9.546875 -5.296875 9.546875 -4.390625 C 9.546875 -3.484375 9.34375 -2.6875 8.9375 -2 C 8.539062 -1.3125 8 -0.78125 7.3125 -0.40625 C 6.632812 -0.0390625 5.878906 0.140625 5.046875 0.140625 Z M 5.046875 -1.140625 C 5.566406 -1.140625 6.054688 -1.257812 6.515625 -1.5 C 6.972656 -1.75 7.34375 -2.117188 7.625 -2.609375 C 7.914062 -3.097656 8.0625 -3.691406 8.0625 -4.390625 C 8.0625 -5.097656 7.921875 -5.695312 7.640625 -6.1875 C 7.359375 -6.675781 6.992188 -7.039062 6.546875 -7.28125 C 6.097656 -7.519531 5.613281 -7.640625 5.09375 -7.640625 C 4.5625 -7.640625 4.070312 -7.519531 3.625 -7.28125 C 3.1875 -7.039062 2.832031 -6.675781 2.5625 -6.1875 C 2.300781 -5.695312 2.171875 -5.097656 2.171875 -4.390625 C 2.171875 -3.679688 2.300781 -3.082031 2.5625 -2.59375 C 2.820312 -2.101562 3.171875 -1.738281 3.609375 -1.5 C 4.046875 -1.257812 4.523438 -1.140625 5.046875 -1.140625 Z M 5.046875 -1.140625 "/></g></g></g><g fill="#ffffff" fill-opacity="1"><g transform="translate(217.938948, 197.553414)"><g><path d="M 4.328125 0.140625 C 3.660156 0.140625 3.054688 0.0234375 2.515625 -0.203125 C 1.984375 -0.429688 1.5625 -0.75 1.25 -1.15625 C 0.945312 -1.570312 0.78125 -2.046875 0.75 -2.578125 L 2.25 -2.578125 C 2.289062 -2.140625 2.492188 -1.78125 2.859375 -1.5 C 3.234375 -1.226562 3.71875 -1.09375 4.3125 -1.09375 C 4.863281 -1.09375 5.300781 -1.210938 5.625 -1.453125 C 5.945312 -1.703125 6.109375 -2.007812 6.109375 -2.375 C 6.109375 -2.757812 5.9375 -3.046875 5.59375 -3.234375 C 5.25 -3.421875 4.722656 -3.601562 4.015625 -3.78125 C 3.359375 -3.957031 2.828125 -4.132812 2.421875 -4.3125 C 2.015625 -4.488281 1.660156 -4.75 1.359375 -5.09375 C 1.066406 -5.4375 0.921875 -5.890625 0.921875 -6.453125 C 0.921875 -6.898438 1.050781 -7.3125 1.3125 -7.6875 C 1.582031 -8.0625 1.960938 -8.359375 2.453125 -8.578125 C 2.953125 -8.796875 3.515625 -8.90625 4.140625 -8.90625 C 5.109375 -8.90625 5.890625 -8.660156 6.484375 -8.171875 C 7.085938 -7.679688 7.410156 -7.007812 7.453125 -6.15625 L 6 -6.15625 C 5.96875 -6.613281 5.78125 -6.976562 5.4375 -7.25 C 5.101562 -7.53125 4.65625 -7.671875 4.09375 -7.671875 C 3.570312 -7.671875 3.15625 -7.554688 2.84375 -7.328125 C 2.53125 -7.109375 2.375 -6.816406 2.375 -6.453125 C 2.375 -6.171875 2.46875 -5.9375 2.65625 -5.75 C 2.84375 -5.5625 3.078125 -5.410156 3.359375 -5.296875 C 3.640625 -5.179688 4.035156 -5.054688 4.546875 -4.921875 C 5.171875 -4.753906 5.679688 -4.585938 6.078125 -4.421875 C 6.472656 -4.253906 6.8125 -4.003906 7.09375 -3.671875 C 7.375 -3.347656 7.519531 -2.914062 7.53125 -2.375 C 7.53125 -1.894531 7.394531 -1.460938 7.125 -1.078125 C 6.863281 -0.703125 6.488281 -0.40625 6 -0.1875 C 5.519531 0.03125 4.960938 0.140625 4.328125 0.140625 Z M 4.328125 0.140625 "/></g></g></g><g fill="#ffffff" fill-opacity="1"><g transform="translate(226.28141, 197.553414)"><g/></g></g><g fill="#ffffff" fill-opacity="1"><g transform="translate(230.548524, 197.553414)"><g><path d="M 5.046875 0.140625 C 4.222656 0.140625 3.476562 -0.0390625 2.8125 -0.40625 C 2.15625 -0.78125 1.632812 -1.3125 1.25 -2 C 0.875 -2.6875 0.6875 -3.484375 0.6875 -4.390625 C 0.6875 -5.285156 0.878906 -6.078125 1.265625 -6.765625 C 1.660156 -7.453125 2.191406 -7.976562 2.859375 -8.34375 C 3.535156 -8.71875 4.285156 -8.90625 5.109375 -8.90625 C 5.941406 -8.90625 6.691406 -8.71875 7.359375 -8.34375 C 8.035156 -7.976562 8.566406 -7.453125 8.953125 -6.765625 C 9.347656 -6.085938 9.546875 -5.296875 9.546875 -4.390625 C 9.546875 -3.484375 9.34375 -2.6875 8.9375 -2 C 8.539062 -1.3125 8 -0.78125 7.3125 -0.40625 C 6.632812 -0.0390625 5.878906 0.140625 5.046875 0.140625 Z M 5.046875 -1.140625 C 5.566406 -1.140625 6.054688 -1.257812 6.515625 -1.5 C 6.972656 -1.75 7.34375 -2.117188 7.625 -2.609375 C 7.914062 -3.097656 8.0625 -3.691406 8.0625 -4.390625 C 8.0625 -5.097656 7.921875 -5.695312 7.640625 -6.1875 C 7.359375 -6.675781 6.992188 -7.039062 6.546875 -7.28125 C 6.097656 -7.519531 5.613281 -7.640625 5.09375 -7.640625 C 4.5625 -7.640625 4.070312 -7.519531 3.625 -7.28125 C 3.1875 -7.039062 2.832031 -6.675781 2.5625 -6.1875 C 2.300781 -5.695312 2.171875 -5.097656 2.171875 -4.390625 C 2.171875 -3.679688 2.300781 -3.082031 2.5625 -2.59375 C 2.820312 -2.101562 3.171875 -1.738281 3.609375 -1.5 C 4.046875 -1.257812 4.523438 -1.140625 5.046875 -1.140625 Z M 5.046875 -1.140625 "/></g></g></g><g fill="#ffffff" fill-opacity="1"><g transform="translate(240.776825, 197.553414)"><g><path d="M 4.328125 0.140625 C 3.660156 0.140625 3.054688 0.0234375 2.515625 -0.203125 C 1.984375 -0.429688 1.5625 -0.75 1.25 -1.15625 C 0.945312 -1.570312 0.78125 -2.046875 0.75 -2.578125 L 2.25 -2.578125 C 2.289062 -2.140625 2.492188 -1.78125 2.859375 -1.5 C 3.234375 -1.226562 3.71875 -1.09375 4.3125 -1.09375 C 4.863281 -1.09375 5.300781 -1.210938 5.625 -1.453125 C 5.945312 -1.703125 6.109375 -2.007812 6.109375 -2.375 C 6.109375 -2.757812 5.9375 -3.046875 5.59375 -3.234375 C 5.25 -3.421875 4.722656 -3.601562 4.015625 -3.78125 C 3.359375 -3.957031 2.828125 -4.132812 2.421875 -4.3125 C 2.015625 -4.488281 1.660156 -4.75 1.359375 -5.09375 C 1.066406 -5.4375 0.921875 -5.890625 0.921875 -6.453125 C 0.921875 -6.898438 1.050781 -7.3125 1.3125 -7.6875 C 1.582031 -8.0625 1.960938 -8.359375 2.453125 -8.578125 C 2.953125 -8.796875 3.515625 -8.90625 4.140625 -8.90625 C 5.109375 -8.90625 5.890625 -8.660156 6.484375 -8.171875 C 7.085938 -7.679688 7.410156 -7.007812 7.453125 -6.15625 L 6 -6.15625 C 5.96875 -6.613281 5.78125 -6.976562 5.4375 -7.25 C 5.101562 -7.53125 4.65625 -7.671875 4.09375 -7.671875 C 3.570312 -7.671875 3.15625 -7.554688 2.84375 -7.328125 C 2.53125 -7.109375 2.375 -6.816406 2.375 -6.453125 C 2.375 -6.171875 2.46875 -5.9375 2.65625 -5.75 C 2.84375 -5.5625 3.078125 -5.410156 3.359375 -5.296875 C 3.640625 -5.179688 4.035156 -5.054688 4.546875 -4.921875 C 5.171875 -4.753906 5.679688 -4.585938 6.078125 -4.421875 C 6.472656 -4.253906 6.8125 -4.003906 7.09375 -3.671875 C 7.375 -3.347656 7.519531 -2.914062 7.53125 -2.375 C 7.53125 -1.894531 7.394531 -1.460938 7.125 -1.078125 C 6.863281 -0.703125 6.488281 -0.40625 6 -0.1875 C 5.519531 0.03125 4.960938 0.140625 4.328125 0.140625 Z M 4.328125 0.140625 "/></g></g></g><g fill="#ffffff" fill-opacity="1"><g transform="translate(249.119287, 197.553414)"><g/></g></g><g fill="#ffffff" fill-opacity="1"><g transform="translate(253.386401, 197.553414)"><g><path d="M 0.6875 -4.40625 C 0.6875 -5.300781 0.867188 -6.085938 1.234375 -6.765625 C 1.597656 -7.441406 2.09375 -7.96875 2.71875 -8.34375 C 3.351562 -8.71875 4.066406 -8.90625 4.859375 -8.90625 C 5.535156 -8.90625 6.164062 -8.742188 6.75 -8.421875 C 7.34375 -8.109375 7.796875 -7.695312 8.109375 -7.1875 L 8.109375 -11.828125 L 9.578125 -11.828125 L 9.578125 0 L 8.109375 0 L 8.109375 -1.640625 C 7.816406 -1.117188 7.390625 -0.691406 6.828125 -0.359375 C 6.265625 -0.0234375 5.601562 0.140625 4.84375 0.140625 C 4.0625 0.140625 3.351562 -0.046875 2.71875 -0.421875 C 2.09375 -0.804688 1.597656 -1.34375 1.234375 -2.03125 C 0.867188 -2.726562 0.6875 -3.519531 0.6875 -4.40625 Z M 8.109375 -4.390625 C 8.109375 -5.054688 7.972656 -5.632812 7.703125 -6.125 C 7.441406 -6.613281 7.082031 -6.988281 6.625 -7.25 C 6.175781 -7.507812 5.675781 -7.640625 5.125 -7.640625 C 4.582031 -7.640625 4.085938 -7.507812 3.640625 -7.25 C 3.191406 -7 2.832031 -6.628906 2.5625 -6.140625 C 2.300781 -5.648438 2.171875 -5.070312 2.171875 -4.40625 C 2.171875 -3.738281 2.300781 -3.15625 2.5625 -2.65625 C 2.832031 -2.164062 3.191406 -1.789062 3.640625 -1.53125 C 4.085938 -1.269531 4.582031 -1.140625 5.125 -1.140625 C 5.675781 -1.140625 6.175781 -1.269531 6.625 -1.53125 C 7.082031 -1.789062 7.441406 -2.164062 7.703125 -2.65625 C 7.972656 -3.15625 8.109375 -3.734375 8.109375 -4.390625 Z M 8.109375 -4.390625 "/></g></g></g><g fill="#ffffff" fill-opacity="1"><g transform="translate(264.190049, 197.553414)"><g><path d="M 1.984375 -10.1875 C 1.703125 -10.1875 1.460938 -10.28125 1.265625 -10.46875 C 1.078125 -10.65625 0.984375 -10.890625 0.984375 -11.171875 C 0.984375 -11.453125 1.078125 -11.6875 1.265625 -11.875 C 1.460938 -12.0625 1.703125 -12.15625 1.984375 -12.15625 C 2.242188 -12.15625 2.46875 -12.0625 2.65625 -11.875 C 2.84375 -11.6875 2.9375 -11.453125 2.9375 -11.171875 C 2.9375 -10.890625 2.84375 -10.65625 2.65625 -10.46875 C 2.46875 -10.28125 2.242188 -10.1875 1.984375 -10.1875 Z M 2.6875 -8.765625 L 2.6875 0 L 1.234375 0 L 1.234375 -8.765625 Z M 2.6875 -8.765625 "/></g></g></g><g fill="#ffffff" fill-opacity="1"><g transform="translate(268.121548, 197.553414)"><g><path d="M 2.6875 -7.34375 C 2.9375 -7.84375 3.296875 -8.226562 3.765625 -8.5 C 4.242188 -8.78125 4.828125 -8.921875 5.515625 -8.921875 L 5.515625 -7.421875 L 5.125 -7.421875 C 3.5 -7.421875 2.6875 -6.535156 2.6875 -4.765625 L 2.6875 0 L 1.234375 0 L 1.234375 -8.765625 L 2.6875 -8.765625 Z M 2.6875 -7.34375 "/></g></g></g><g fill="#ffffff" fill-opacity="1"><g transform="translate(274.082734, 197.553414)"><g><path d="M 9.21875 -4.71875 C 9.21875 -4.4375 9.203125 -4.144531 9.171875 -3.84375 L 2.171875 -3.84375 C 2.222656 -2.976562 2.519531 -2.300781 3.0625 -1.8125 C 3.601562 -1.332031 4.253906 -1.09375 5.015625 -1.09375 C 5.648438 -1.09375 6.175781 -1.238281 6.59375 -1.53125 C 7.007812 -1.820312 7.304688 -2.210938 7.484375 -2.703125 L 9.046875 -2.703125 C 8.816406 -1.859375 8.347656 -1.171875 7.640625 -0.640625 C 6.929688 -0.117188 6.054688 0.140625 5.015625 0.140625 C 4.179688 0.140625 3.4375 -0.0390625 2.78125 -0.40625 C 2.132812 -0.78125 1.625 -1.3125 1.25 -2 C 0.875 -2.6875 0.6875 -3.484375 0.6875 -4.390625 C 0.6875 -5.296875 0.867188 -6.085938 1.234375 -6.765625 C 1.597656 -7.453125 2.101562 -7.976562 2.75 -8.34375 C 3.40625 -8.71875 4.160156 -8.90625 5.015625 -8.90625 C 5.847656 -8.90625 6.582031 -8.722656 7.21875 -8.359375 C 7.863281 -7.992188 8.359375 -7.492188 8.703125 -6.859375 C 9.046875 -6.234375 9.21875 -5.519531 9.21875 -4.71875 Z M 7.71875 -5.015625 C 7.71875 -5.566406 7.59375 -6.039062 7.34375 -6.4375 C 7.101562 -6.84375 6.769531 -7.148438 6.34375 -7.359375 C 5.925781 -7.566406 5.460938 -7.671875 4.953125 -7.671875 C 4.222656 -7.671875 3.597656 -7.4375 3.078125 -6.96875 C 2.554688 -6.5 2.257812 -5.847656 2.1875 -5.015625 Z M 7.71875 -5.015625 "/></g></g></g><g fill="#ffffff" fill-opacity="1"><g transform="translate(283.991404, 197.553414)"><g><path d="M 1.984375 -10.1875 C 1.703125 -10.1875 1.460938 -10.28125 1.265625 -10.46875 C 1.078125 -10.65625 0.984375 -10.890625 0.984375 -11.171875 C 0.984375 -11.453125 1.078125 -11.6875 1.265625 -11.875 C 1.460938 -12.0625 1.703125 -12.15625 1.984375 -12.15625 C 2.242188 -12.15625 2.46875 -12.0625 2.65625 -11.875 C 2.84375 -11.6875 2.9375 -11.453125 2.9375 -11.171875 C 2.9375 -10.890625 2.84375 -10.65625 2.65625 -10.46875 C 2.46875 -10.28125 2.242188 -10.1875 1.984375 -10.1875 Z M 2.6875 -8.765625 L 2.6875 0 L 1.234375 0 L 1.234375 -8.765625 Z M 2.6875 -8.765625 "/></g></g></g><g fill="#ffffff" fill-opacity="1"><g transform="translate(287.922903, 197.553414)"><g><path d="M 3 -7.5625 L 3 -2.390625 C 3 -1.972656 3.085938 -1.675781 3.265625 -1.5 C 3.453125 -1.320312 3.769531 -1.234375 4.21875 -1.234375 L 5.296875 -1.234375 L 5.296875 0 L 3.984375 0 C 3.171875 0 2.5625 -0.1875 2.15625 -0.5625 C 1.75 -0.9375 1.546875 -1.546875 1.546875 -2.390625 L 1.546875 -7.5625 L 0.421875 -7.5625 L 0.421875 -8.765625 L 1.546875 -8.765625 L 1.546875 -10.96875 L 3 -10.96875 L 3 -8.765625 L 5.296875 -8.765625 L 5.296875 -7.5625 Z M 3 -7.5625 "/></g></g></g><g fill="#ffffff" fill-opacity="1"><g transform="translate(293.740253, 197.553414)"><g><path d="M 5.046875 0.140625 C 4.222656 0.140625 3.476562 -0.0390625 2.8125 -0.40625 C 2.15625 -0.78125 1.632812 -1.3125 1.25 -2 C 0.875 -2.6875 0.6875 -3.484375 0.6875 -4.390625 C 0.6875 -5.285156 0.878906 -6.078125 1.265625 -6.765625 C 1.660156 -7.453125 2.191406 -7.976562 2.859375 -8.34375 C 3.535156 -8.71875 4.285156 -8.90625 5.109375 -8.90625 C 5.941406 -8.90625 6.691406 -8.71875 7.359375 -8.34375 C 8.035156 -7.976562 8.566406 -7.453125 8.953125 -6.765625 C 9.347656 -6.085938 9.546875 -5.296875 9.546875 -4.390625 C 9.546875 -3.484375 9.34375 -2.6875 8.9375 -2 C 8.539062 -1.3125 8 -0.78125 7.3125 -0.40625 C 6.632812 -0.0390625 5.878906 0.140625 5.046875 0.140625 Z M 5.046875 -1.140625 C 5.566406 -1.140625 6.054688 -1.257812 6.515625 -1.5 C 6.972656 -1.75 7.34375 -2.117188 7.625 -2.609375 C 7.914062 -3.097656 8.0625 -3.691406 8.0625 -4.390625 C 8.0625 -5.097656 7.921875 -5.695312 7.640625 -6.1875 C 7.359375 -6.675781 6.992188 -7.039062 6.546875 -7.28125 C 6.097656 -7.519531 5.613281 -7.640625 5.09375 -7.640625 C 4.5625 -7.640625 4.070312 -7.519531 3.625 -7.28125 C 3.1875 -7.039062 2.832031 -6.675781 2.5625 -6.1875 C 2.300781 -5.695312 2.171875 -5.097656 2.171875 -4.390625 C 2.171875 -3.679688 2.300781 -3.082031 2.5625 -2.59375 C 2.820312 -2.101562 3.171875 -1.738281 3.609375 -1.5 C 4.046875 -1.257812 4.523438 -1.140625 5.046875 -1.140625 Z M 5.046875 -1.140625 "/></g></g></g><g fill="#ffffff" fill-opacity="1"><g transform="translate(303.968554, 197.553414)"><g><path d="M 4.328125 0.140625 C 3.660156 0.140625 3.054688 0.0234375 2.515625 -0.203125 C 1.984375 -0.429688 1.5625 -0.75 1.25 -1.15625 C 0.945312 -1.570312 0.78125 -2.046875 0.75 -2.578125 L 2.25 -2.578125 C 2.289062 -2.140625 2.492188 -1.78125 2.859375 -1.5 C 3.234375 -1.226562 3.71875 -1.09375 4.3125 -1.09375 C 4.863281 -1.09375 5.300781 -1.210938 5.625 -1.453125 C 5.945312 -1.703125 6.109375 -2.007812 6.109375 -2.375 C 6.109375 -2.757812 5.9375 -3.046875 5.59375 -3.234375 C 5.25 -3.421875 4.722656 -3.601562 4.015625 -3.78125 C 3.359375 -3.957031 2.828125 -4.132812 2.421875 -4.3125 C 2.015625 -4.488281 1.660156 -4.75 1.359375 -5.09375 C 1.066406 -5.4375 0.921875 -5.890625 0.921875 -6.453125 C 0.921875 -6.898438 1.050781 -7.3125 1.3125 -7.6875 C 1.582031 -8.0625 1.960938 -8.359375 2.453125 -8.578125 C 2.953125 -8.796875 3.515625 -8.90625 4.140625 -8.90625 C 5.109375 -8.90625 5.890625 -8.660156 6.484375 -8.171875 C 7.085938 -7.679688 7.410156 -7.007812 7.453125 -6.15625 L 6 -6.15625 C 5.96875 -6.613281 5.78125 -6.976562 5.4375 -7.25 C 5.101562 -7.53125 4.65625 -7.671875 4.09375 -7.671875 C 3.570312 -7.671875 3.15625 -7.554688 2.84375 -7.328125 C 2.53125 -7.109375 2.375 -6.816406 2.375 -6.453125 C 2.375 -6.171875 2.46875 -5.9375 2.65625 -5.75 C 2.84375 -5.5625 3.078125 -5.410156 3.359375 -5.296875 C 3.640625 -5.179688 4.035156 -5.054688 4.546875 -4.921875 C 5.171875 -4.753906 5.679688 -4.585938 6.078125 -4.421875 C 6.472656 -4.253906 6.8125 -4.003906 7.09375 -3.671875 C 7.375 -3.347656 7.519531 -2.914062 7.53125 -2.375 C 7.53125 -1.894531 7.394531 -1.460938 7.125 -1.078125 C 6.863281 -0.703125 6.488281 -0.40625 6 -0.1875 C 5.519531 0.03125 4.960938 0.140625 4.328125 0.140625 Z M 4.328125 0.140625 "/></g></g></g><g fill="#ffffff" fill-opacity="1"><g transform="translate(312.311015, 197.553414)"><g/></g></g><g fill="#ffffff" fill-opacity="1"><g transform="translate(316.578118, 197.553414)"><g><path d="M 2.6875 -7.34375 C 2.9375 -7.84375 3.296875 -8.226562 3.765625 -8.5 C 4.242188 -8.78125 4.828125 -8.921875 5.515625 -8.921875 L 5.515625 -7.421875 L 5.125 -7.421875 C 3.5 -7.421875 2.6875 -6.535156 2.6875 -4.765625 L 2.6875 0 L 1.234375 0 L 1.234375 -8.765625 L 2.6875 -8.765625 Z M 2.6875 -7.34375 "/></g></g></g><g fill="#ffffff" fill-opacity="1"><g transform="translate(322.539316, 197.553414)"><g><path d="M 9.21875 -4.71875 C 9.21875 -4.4375 9.203125 -4.144531 9.171875 -3.84375 L 2.171875 -3.84375 C 2.222656 -2.976562 2.519531 -2.300781 3.0625 -1.8125 C 3.601562 -1.332031 4.253906 -1.09375 5.015625 -1.09375 C 5.648438 -1.09375 6.175781 -1.238281 6.59375 -1.53125 C 7.007812 -1.820312 7.304688 -2.210938 7.484375 -2.703125 L 9.046875 -2.703125 C 8.816406 -1.859375 8.347656 -1.171875 7.640625 -0.640625 C 6.929688 -0.117188 6.054688 0.140625 5.015625 0.140625 C 4.179688 0.140625 3.4375 -0.0390625 2.78125 -0.40625 C 2.132812 -0.78125 1.625 -1.3125 1.25 -2 C 0.875 -2.6875 0.6875 -3.484375 0.6875 -4.390625 C 0.6875 -5.296875 0.867188 -6.085938 1.234375 -6.765625 C 1.597656 -7.453125 2.101562 -7.976562 2.75 -8.34375 C 3.40625 -8.71875 4.160156 -8.90625 5.015625 -8.90625 C 5.847656 -8.90625 6.582031 -8.722656 7.21875 -8.359375 C 7.863281 -7.992188 8.359375 -7.492188 8.703125 -6.859375 C 9.046875 -6.234375 9.21875 -5.519531 9.21875 -4.71875 Z M 7.71875 -5.015625 C 7.71875 -5.566406 7.59375 -6.039062 7.34375 -6.4375 C 7.101562 -6.84375 6.769531 -7.148438 6.34375 -7.359375 C 5.925781 -7.566406 5.460938 -7.671875 4.953125 -7.671875 C 4.222656 -7.671875 3.597656 -7.4375 3.078125 -6.96875 C 2.554688 -6.5 2.257812 -5.847656 2.1875 -5.015625 Z M 7.71875 -5.015625 "/></g></g></g><g fill="#ffffff" fill-opacity="1"><g transform="translate(332.447997, 197.553414)"><g><path d="M 4.328125 0.140625 C 3.660156 0.140625 3.054688 0.0234375 2.515625 -0.203125 C 1.984375 -0.429688 1.5625 -0.75 1.25 -1.15625 C 0.945312 -1.570312 0.78125 -2.046875 0.75 -2.578125 L 2.25 -2.578125 C 2.289062 -2.140625 2.492188 -1.78125 2.859375 -1.5 C 3.234375 -1.226562 3.71875 -1.09375 4.3125 -1.09375 C 4.863281 -1.09375 5.300781 -1.210938 5.625 -1.453125 C 5.945312 -1.703125 6.109375 -2.007812 6.109375 -2.375 C 6.109375 -2.757812 5.9375 -3.046875 5.59375 -3.234375 C 5.25 -3.421875 4.722656 -3.601562 4.015625 -3.78125 C 3.359375 -3.957031 2.828125 -4.132812 2.421875 -4.3125 C 2.015625 -4.488281 1.660156 -4.75 1.359375 -5.09375 C 1.066406 -5.4375 0.921875 -5.890625 0.921875 -6.453125 C 0.921875 -6.898438 1.050781 -7.3125 1.3125 -7.6875 C 1.582031 -8.0625 1.960938 -8.359375 2.453125 -8.578125 C 2.953125 -8.796875 3.515625 -8.90625 4.140625 -8.90625 C 5.109375 -8.90625 5.890625 -8.660156 6.484375 -8.171875 C 7.085938 -7.679688 7.410156 -7.007812 7.453125 -6.15625 L 6 -6.15625 C 5.96875 -6.613281 5.78125 -6.976562 5.4375 -7.25 C 5.101562 -7.53125 4.65625 -7.671875 4.09375 -7.671875 C 3.570312 -7.671875 3.15625 -7.554688 2.84375 -7.328125 C 2.53125 -7.109375 2.375 -6.816406 2.375 -6.453125 C 2.375 -6.171875 2.46875 -5.9375 2.65625 -5.75 C 2.84375 -5.5625 3.078125 -5.410156 3.359375 -5.296875 C 3.640625 -5.179688 4.035156 -5.054688 4.546875 -4.921875 C 5.171875 -4.753906 5.679688 -4.585938 6.078125 -4.421875 C 6.472656 -4.253906 6.8125 -4.003906 7.09375 -3.671875 C 7.375 -3.347656 7.519531 -2.914062 7.53125 -2.375 C 7.53125 -1.894531 7.394531 -1.460938 7.125 -1.078125 C 6.863281 -0.703125 6.488281 -0.40625 6 -0.1875 C 5.519531 0.03125 4.960938 0.140625 4.328125 0.140625 Z M 4.328125 0.140625 "/></g></g></g><g fill="#ffffff" fill-opacity="1"><g transform="translate(340.790459, 197.553414)"><g><path d="M 9.21875 -4.71875 C 9.21875 -4.4375 9.203125 -4.144531 9.171875 -3.84375 L 2.171875 -3.84375 C 2.222656 -2.976562 2.519531 -2.300781 3.0625 -1.8125 C 3.601562 -1.332031 4.253906 -1.09375 5.015625 -1.09375 C 5.648438 -1.09375 6.175781 -1.238281 6.59375 -1.53125 C 7.007812 -1.820312 7.304688 -2.210938 7.484375 -2.703125 L 9.046875 -2.703125 C 8.816406 -1.859375 8.347656 -1.171875 7.640625 -0.640625 C 6.929688 -0.117188 6.054688 0.140625 5.015625 0.140625 C 4.179688 0.140625 3.4375 -0.0390625 2.78125 -0.40625 C 2.132812 -0.78125 1.625 -1.3125 1.25 -2 C 0.875 -2.6875 0.6875 -3.484375 0.6875 -4.390625 C 0.6875 -5.296875 0.867188 -6.085938 1.234375 -6.765625 C 1.597656 -7.453125 2.101562 -7.976562 2.75 -8.34375 C 3.40625 -8.71875 4.160156 -8.90625 5.015625 -8.90625 C 5.847656 -8.90625 6.582031 -8.722656 7.21875 -8.359375 C 7.863281 -7.992188 8.359375 -7.492188 8.703125 -6.859375 C 9.046875 -6.234375 9.21875 -5.519531 9.21875 -4.71875 Z M 7.71875 -5.015625 C 7.71875 -5.566406 7.59375 -6.039062 7.34375 -6.4375 C 7.101562 -6.84375 6.769531 -7.148438 6.34375 -7.359375 C 5.925781 -7.566406 5.460938 -7.671875 4.953125 -7.671875 C 4.222656 -7.671875 3.597656 -7.4375 3.078125 -6.96875 C 2.554688 -6.5 2.257812 -5.847656 2.1875 -5.015625 Z M 7.71875 -5.015625 "/></g></g></g><g fill="#ffffff" fill-opacity="1"><g transform="translate(350.699118, 197.553414)"><g><path d="M 2.6875 -7.34375 C 2.9375 -7.84375 3.296875 -8.226562 3.765625 -8.5 C 4.242188 -8.78125 4.828125 -8.921875 5.515625 -8.921875 L 5.515625 -7.421875 L 5.125 -7.421875 C 3.5 -7.421875 2.6875 -6.535156 2.6875 -4.765625 L 2.6875 0 L 1.234375 0 L 1.234375 -8.765625 L 2.6875 -8.765625 Z M 2.6875 -7.34375 "/></g></g></g><g fill="#ffffff" fill-opacity="1"><g transform="translate(356.660315, 197.553414)"><g><path d="M 4.484375 -1.34375 L 7.203125 -8.765625 L 8.765625 -8.765625 L 5.328125 0 L 3.625 0 L 0.1875 -8.765625 L 1.765625 -8.765625 Z M 4.484375 -1.34375 "/></g></g></g><g fill="#ffffff" fill-opacity="1"><g transform="translate(365.626077, 197.553414)"><g><path d="M 0.6875 -4.40625 C 0.6875 -5.300781 0.867188 -6.085938 1.234375 -6.765625 C 1.597656 -7.441406 2.09375 -7.96875 2.71875 -8.34375 C 3.351562 -8.71875 4.0625 -8.90625 4.84375 -8.90625 C 5.613281 -8.90625 6.28125 -8.738281 6.84375 -8.40625 C 7.40625 -8.070312 7.828125 -7.65625 8.109375 -7.15625 L 8.109375 -8.765625 L 9.578125 -8.765625 L 9.578125 0 L 8.109375 0 L 8.109375 -1.625 C 7.816406 -1.113281 7.382812 -0.691406 6.8125 -0.359375 C 6.25 -0.0234375 5.585938 0.140625 4.828125 0.140625 C 4.046875 0.140625 3.34375 -0.046875 2.71875 -0.421875 C 2.09375 -0.804688 1.597656 -1.34375 1.234375 -2.03125 C 0.867188 -2.726562 0.6875 -3.519531 0.6875 -4.40625 Z M 8.109375 -4.390625 C 8.109375 -5.054688 7.972656 -5.632812 7.703125 -6.125 C 7.441406 -6.613281 7.082031 -6.988281 6.625 -7.25 C 6.175781 -7.507812 5.675781 -7.640625 5.125 -7.640625 C 4.582031 -7.640625 4.085938 -7.507812 3.640625 -7.25 C 3.191406 -7 2.832031 -6.628906 2.5625 -6.140625 C 2.300781 -5.648438 2.171875 -5.070312 2.171875 -4.40625 C 2.171875 -3.738281 2.300781 -3.15625 2.5625 -2.65625 C 2.832031 -2.164062 3.191406 -1.789062 3.640625 -1.53125 C 4.085938 -1.269531 4.582031 -1.140625 5.125 -1.140625 C 5.675781 -1.140625 6.175781 -1.269531 6.625 -1.53125 C 7.082031 -1.789062 7.441406 -2.164062 7.703125 -2.65625 C 7.972656 -3.15625 8.109375 -3.734375 8.109375 -4.390625 Z M 8.109375 -4.390625 "/></g></g></g><g fill="#ffffff" fill-opacity="1"><g transform="translate(376.429725, 197.553414)"><g><path d="M 0.6875 -4.40625 C 0.6875 -5.300781 0.867188 -6.085938 1.234375 -6.765625 C 1.597656 -7.441406 2.09375 -7.96875 2.71875 -8.34375 C 3.351562 -8.71875 4.066406 -8.90625 4.859375 -8.90625 C 5.535156 -8.90625 6.164062 -8.742188 6.75 -8.421875 C 7.34375 -8.109375 7.796875 -7.695312 8.109375 -7.1875 L 8.109375 -11.828125 L 9.578125 -11.828125 L 9.578125 0 L 8.109375 0 L 8.109375 -1.640625 C 7.816406 -1.117188 7.390625 -0.691406 6.828125 -0.359375 C 6.265625 -0.0234375 5.601562 0.140625 4.84375 0.140625 C 4.0625 0.140625 3.351562 -0.046875 2.71875 -0.421875 C 2.09375 -0.804688 1.597656 -1.34375 1.234375 -2.03125 C 0.867188 -2.726562 0.6875 -3.519531 0.6875 -4.40625 Z M 8.109375 -4.390625 C 8.109375 -5.054688 7.972656 -5.632812 7.703125 -6.125 C 7.441406 -6.613281 7.082031 -6.988281 6.625 -7.25 C 6.175781 -7.507812 5.675781 -7.640625 5.125 -7.640625 C 4.582031 -7.640625 4.085938 -7.507812 3.640625 -7.25 C 3.191406 -7 2.832031 -6.628906 2.5625 -6.140625 C 2.300781 -5.648438 2.171875 -5.070312 2.171875 -4.40625 C 2.171875 -3.738281 2.300781 -3.15625 2.5625 -2.65625 C 2.832031 -2.164062 3.191406 -1.789062 3.640625 -1.53125 C 4.085938 -1.269531 4.582031 -1.140625 5.125 -1.140625 C 5.675781 -1.140625 6.175781 -1.269531 6.625 -1.53125 C 7.082031 -1.789062 7.441406 -2.164062 7.703125 -2.65625 C 7.972656 -3.15625 8.109375 -3.734375 8.109375 -4.390625 Z M 8.109375 -4.390625 "/></g></g></g><g fill="#ffffff" fill-opacity="1"><g transform="translate(387.233372, 197.553414)"><g><path d="M 5.046875 0.140625 C 4.222656 0.140625 3.476562 -0.0390625 2.8125 -0.40625 C 2.15625 -0.78125 1.632812 -1.3125 1.25 -2 C 0.875 -2.6875 0.6875 -3.484375 0.6875 -4.390625 C 0.6875 -5.285156 0.878906 -6.078125 1.265625 -6.765625 C 1.660156 -7.453125 2.191406 -7.976562 2.859375 -8.34375 C 3.535156 -8.71875 4.285156 -8.90625 5.109375 -8.90625 C 5.941406 -8.90625 6.691406 -8.71875 7.359375 -8.34375 C 8.035156 -7.976562 8.566406 -7.453125 8.953125 -6.765625 C 9.347656 -6.085938 9.546875 -5.296875 9.546875 -4.390625 C 9.546875 -3.484375 9.34375 -2.6875 8.9375 -2 C 8.539062 -1.3125 8 -0.78125 7.3125 -0.40625 C 6.632812 -0.0390625 5.878906 0.140625 5.046875 0.140625 Z M 5.046875 -1.140625 C 5.566406 -1.140625 6.054688 -1.257812 6.515625 -1.5 C 6.972656 -1.75 7.34375 -2.117188 7.625 -2.609375 C 7.914062 -3.097656 8.0625 -3.691406 8.0625 -4.390625 C 8.0625 -5.097656 7.921875 -5.695312 7.640625 -6.1875 C 7.359375 -6.675781 6.992188 -7.039062 6.546875 -7.28125 C 6.097656 -7.519531 5.613281 -7.640625 5.09375 -7.640625 C 4.5625 -7.640625 4.070312 -7.519531 3.625 -7.28125 C 3.1875 -7.039062 2.832031 -6.675781 2.5625 -6.1875 C 2.300781 -5.695312 2.171875 -5.097656 2.171875 -4.390625 C 2.171875 -3.679688 2.300781 -3.082031 2.5625 -2.59375 C 2.820312 -2.101562 3.171875 -1.738281 3.609375 -1.5 C 4.046875 -1.257812 4.523438 -1.140625 5.046875 -1.140625 Z M 5.046875 -1.140625 "/></g></g></g><g fill="#ffffff" fill-opacity="1"><g transform="translate(397.461673, 197.553414)"><g><path d="M 4.328125 0.140625 C 3.660156 0.140625 3.054688 0.0234375 2.515625 -0.203125 C 1.984375 -0.429688 1.5625 -0.75 1.25 -1.15625 C 0.945312 -1.570312 0.78125 -2.046875 0.75 -2.578125 L 2.25 -2.578125 C 2.289062 -2.140625 2.492188 -1.78125 2.859375 -1.5 C 3.234375 -1.226562 3.71875 -1.09375 4.3125 -1.09375 C 4.863281 -1.09375 5.300781 -1.210938 5.625 -1.453125 C 5.945312 -1.703125 6.109375 -2.007812 6.109375 -2.375 C 6.109375 -2.757812 5.9375 -3.046875 5.59375 -3.234375 C 5.25 -3.421875 4.722656 -3.601562 4.015625 -3.78125 C 3.359375 -3.957031 2.828125 -4.132812 2.421875 -4.3125 C 2.015625 -4.488281 1.660156 -4.75 1.359375 -5.09375 C 1.066406 -5.4375 0.921875 -5.890625 0.921875 -6.453125 C 0.921875 -6.898438 1.050781 -7.3125 1.3125 -7.6875 C 1.582031 -8.0625 1.960938 -8.359375 2.453125 -8.578125 C 2.953125 -8.796875 3.515625 -8.90625 4.140625 -8.90625 C 5.109375 -8.90625 5.890625 -8.660156 6.484375 -8.171875 C 7.085938 -7.679688 7.410156 -7.007812 7.453125 -6.15625 L 6 -6.15625 C 5.96875 -6.613281 5.78125 -6.976562 5.4375 -7.25 C 5.101562 -7.53125 4.65625 -7.671875 4.09375 -7.671875 C 3.570312 -7.671875 3.15625 -7.554688 2.84375 -7.328125 C 2.53125 -7.109375 2.375 -6.816406 2.375 -6.453125 C 2.375 -6.171875 2.46875 -5.9375 2.65625 -5.75 C 2.84375 -5.5625 3.078125 -5.410156 3.359375 -5.296875 C 3.640625 -5.179688 4.035156 -5.054688 4.546875 -4.921875 C 5.171875 -4.753906 5.679688 -4.585938 6.078125 -4.421875 C 6.472656 -4.253906 6.8125 -4.003906 7.09375 -3.671875 C 7.375 -3.347656 7.519531 -2.914062 7.53125 -2.375 C 7.53125 -1.894531 7.394531 -1.460938 7.125 -1.078125 C 6.863281 -0.703125 6.488281 -0.40625 6 -0.1875 C 5.519531 0.03125 4.960938 0.140625 4.328125 0.140625 Z M 4.328125 0.140625 "/></g></g></g></svg>