<svg xmlns="http://www.w3.org/2000/svg" xmlns:xlink="http://www.w3.org/1999/xlink" width="614" zoomAndPan="magnify" viewBox="0 0 460.5 231" height="308" preserveAspectRatio="xMidYMid meet" version="1.0"><defs><g/><clipPath id="id1"><path d="M 75.6875 140 L 236 140 L 236 150 L 75.6875 150 Z M 75.6875 140 " clip-rule="nonzero"/></clipPath><clipPath id="id2"><path d="M 150 75.683594 L 153 75.683594 L 153 84 L 150 84 Z M 150 75.683594 " clip-rule="nonzero"/></clipPath><clipPath id="id3"><path d="M 92 146 L 223 146 L 223 155.933594 L 92 155.933594 Z M 92 146 " clip-rule="nonzero"/></clipPath></defs><g clip-path="url(#id1)"><path fill="#e76f51" d="M 235.832031 146.742188 C 235.398438 145.265625 234.964844 143.824219 234.53125 142.347656 C 234.230469 141.410156 233.761719 140.769531 232.761719 140.503906 C 230.960938 140.03125 229.054688 141.375 227.953125 142.683594 C 226.753906 144.09375 224.882812 148.554688 222.414062 147.042969 C 221.011719 146.207031 220.679688 143.992188 219.644531 142.75 C 218.609375 141.476562 217.007812 140.972656 215.46875 141.675781 C 213.367188 142.683594 212.734375 145.097656 211.03125 146.507812 C 210.363281 147.078125 209.59375 147.546875 208.761719 147.078125 C 207.960938 146.640625 207.992188 145.9375 207.757812 145.097656 C 207.558594 144.261719 207.226562 143.523438 206.625 142.882812 C 205.488281 141.675781 203.789062 141.074219 202.152344 141.140625 C 200.617188 141.207031 199.148438 141.910156 198.246094 143.1875 C 197.476562 144.292969 197.246094 145.804688 196.078125 146.574219 C 195.042969 147.246094 193.441406 147.210938 192.4375 146.472656 C 190.871094 145.265625 190.9375 142.851562 189.632812 141.375 C 188.5 140.101562 186.730469 139.933594 185.363281 140.9375 C 183.625 142.214844 183.359375 144.359375 182.324219 146.105469 C 180.921875 148.554688 179.1875 147.546875 178.085938 145.667969 C 176.78125 143.488281 175.347656 139.832031 172.144531 140.671875 C 169.070312 141.476562 168.839844 145.332031 166.636719 147.078125 C 164.832031 148.488281 163.765625 146.105469 163.195312 144.695312 C 162.664062 143.320312 162.09375 141.8125 160.761719 141.039062 C 159.058594 140.066406 157.222656 140.839844 155.921875 142.113281 C 154.382812 143.65625 153.382812 147.113281 151.011719 147.515625 C 148.910156 147.882812 148.210938 144.863281 147.542969 143.453125 C 146.941406 142.113281 146.074219 140.839844 144.539062 140.535156 C 141.332031 139.898438 140.03125 143.824219 138.460938 145.769531 C 137.996094 146.339844 137.425781 146.945312 136.625 147.042969 C 135.15625 147.246094 134.222656 145.703125 133.589844 144.628906 C 132.554688 142.917969 131.484375 140.9375 129.382812 140.367188 C 127.480469 139.863281 126.109375 141.140625 125.542969 142.882812 C 124.875 144.964844 123.839844 147.113281 121.304688 147.144531 C 118.800781 147.179688 118.867188 144.292969 118.101562 142.582031 C 117.332031 140.90625 115.628906 140.101562 113.859375 140.769531 C 111.625 141.609375 110.921875 143.855469 109.753906 145.703125 C 107.851562 148.753906 104.746094 147.949219 103.011719 145.367188 C 101.34375 142.917969 99.207031 139.226562 95.703125 141.308594 C 93.433594 142.648438 91.027344 148.921875 87.855469 146.375 C 86.457031 145.234375 85.722656 143.488281 84.183594 142.449219 C 82.515625 141.339844 80.515625 141.542969 78.945312 142.75 C 77.042969 144.191406 76.441406 146.609375 75.941406 148.824219 C 75.707031 149.863281 77.308594 150.332031 77.542969 149.257812 C 78.042969 146.945312 79.644531 141.777344 83.015625 143.691406 C 84.621094 144.59375 85.386719 146.507812 86.789062 147.648438 C 89.59375 149.964844 92.195312 147.78125 94 145.46875 C 94.902344 144.292969 96.035156 142.449219 97.671875 142.382812 C 99.707031 142.3125 100.707031 144.964844 101.675781 146.375 C 102.710938 147.882812 104.011719 149.15625 105.917969 149.394531 C 107.886719 149.628906 109.621094 148.753906 110.789062 147.179688 C 111.492188 146.207031 111.925781 145.066406 112.558594 144.058594 C 113.394531 142.785156 115.363281 141.171875 116.496094 143.085938 C 117.433594 144.628906 117.199219 146.609375 118.667969 147.882812 C 121.238281 150.132812 125.375 147.949219 126.578125 145.234375 C 126.980469 144.292969 127.046875 142.28125 128.214844 141.945312 C 129.550781 141.542969 130.882812 143.285156 131.453125 144.261719 C 132.421875 145.871094 133.289062 147.851562 135.191406 148.519531 C 138.460938 149.695312 140.164062 146.105469 141.632812 143.957031 C 142.535156 142.617188 143.96875 141.308594 145.339844 142.984375 C 146.375 144.261719 146.605469 146.039062 147.542969 147.378906 C 148.34375 148.554688 149.542969 149.324219 151.011719 149.191406 C 153.050781 148.992188 154.453125 147.078125 155.453125 145.46875 C 156.6875 143.523438 159.191406 140.601562 160.925781 143.722656 C 161.660156 145.066406 161.960938 146.710938 162.964844 147.917969 C 165.03125 150.367188 167.667969 148.789062 169.070312 146.609375 C 169.871094 145.367188 170.472656 143.757812 171.640625 142.785156 C 173.109375 141.542969 174.414062 142.714844 175.246094 144.058594 C 176.515625 146.140625 177.683594 149.695312 180.753906 149.292969 C 182.625 149.058594 183.625 147.3125 184.328125 145.734375 C 184.761719 144.730469 185.09375 143.621094 185.828125 142.785156 C 186.964844 141.476562 188.164062 141.945312 188.867188 143.320312 C 189.667969 144.929688 189.933594 146.84375 191.570312 147.917969 C 192.9375 148.855469 194.839844 148.992188 196.34375 148.285156 C 198.511719 147.3125 198.480469 144.832031 200.183594 143.488281 C 201.71875 142.246094 204.453125 142.648438 205.589844 144.261719 C 206.65625 145.769531 206.125 148.085938 208.226562 148.824219 C 209.996094 149.460938 211.898438 148.085938 212.96875 146.777344 C 214.070312 145.433594 216.070312 141.339844 218.175781 143.589844 C 219.277344 144.796875 219.542969 146.609375 220.710938 147.78125 C 221.847656 148.957031 223.515625 149.226562 224.984375 148.453125 C 226.988281 147.347656 227.722656 145.199219 229.191406 143.589844 C 229.957031 142.75 231.492188 141.441406 232.527344 142.382812 C 233.0625 142.851562 233.195312 143.890625 233.394531 144.59375 C 233.628906 145.433594 233.898438 146.273438 234.128906 147.113281 C 234.53125 148.21875 236.167969 147.78125 235.832031 146.742188 Z M 235.832031 146.742188 " fill-opacity="1" fill-rule="nonzero"/></g><path fill="#e76f51" d="M 172.710938 117.554688 C 164.566406 114.636719 155.820312 114.066406 147.84375 117.757812 C 139.597656 121.582031 133.6875 129.429688 132.019531 138.390625 C 131.917969 138.859375 132.1875 139.195312 132.554688 139.363281 C 132.6875 139.5625 132.886719 139.695312 133.222656 139.664062 C 143.601562 139.125 154.015625 138.859375 164.398438 138.792969 C 169.605469 138.757812 174.8125 138.824219 179.988281 138.890625 C 181.457031 138.925781 184.09375 139.53125 185.363281 138.523438 C 186.5625 137.550781 186.097656 135.234375 185.960938 133.925781 C 185.0625 126.34375 179.820312 120.105469 172.710938 117.554688 Z M 172.710938 117.554688 " fill-opacity="1" fill-rule="nonzero"/><path fill="#e76f51" d="M 106.082031 122.152344 C 109.65625 124.164062 113.359375 125.910156 117.199219 127.417969 C 120.804688 128.828125 124.941406 129.597656 128.214844 131.710938 C 128.015625 132.28125 127.847656 132.820312 127.679688 133.390625 C 127.648438 133.390625 127.648438 133.390625 127.613281 133.390625 C 123.039062 132.519531 118.398438 131.746094 113.894531 130.503906 C 113.761719 130.371094 113.59375 130.269531 113.328125 130.238281 C 113.125 130.238281 112.925781 130.203125 112.726562 130.203125 C 111.757812 130.136719 111.625 131.578125 112.492188 131.847656 C 117.296875 133.253906 122.238281 134.0625 127.144531 134.964844 C 127.179688 134.964844 127.210938 134.964844 127.246094 134.964844 C 127.113281 135.636719 126.980469 136.308594 126.878906 137.011719 C 120.269531 136.34375 113.628906 135.671875 107.019531 135 C 106.75 134.597656 106.183594 134.363281 105.75 134.832031 C 105.648438 134.933594 105.550781 135.035156 105.449219 135.132812 C 104.914062 135.703125 105.316406 136.511719 106.050781 136.578125 C 113.027344 137.28125 120.003906 137.984375 126.945312 138.691406 C 127.378906 139.09375 128.347656 138.890625 128.414062 138.085938 C 129.347656 126.78125 138.730469 116.28125 149.109375 112.589844 C 154.71875 110.609375 160.894531 110.242188 166.636719 111.851562 C 172.308594 113.429688 177.882812 116.851562 182.257812 120.84375 C 187.230469 125.40625 190.734375 131.710938 190.167969 138.625 C 190.101562 139.597656 191.46875 139.695312 191.769531 138.890625 C 199.75 138.523438 207.691406 137.851562 215.636719 136.878906 C 216.707031 136.746094 216.707031 135.066406 215.636719 135.203125 C 207.757812 136.175781 199.847656 136.84375 191.902344 137.214844 C 191.902344 136.476562 191.871094 135.773438 191.804688 135.035156 C 196.410156 133.824219 201.050781 132.851562 205.691406 131.878906 C 206.726562 131.644531 206.289062 130.035156 205.257812 130.269531 C 200.683594 131.210938 196.109375 132.183594 191.570312 133.355469 C 191.4375 132.550781 191.238281 131.78125 191.003906 131.042969 C 196.8125 128.390625 202.585938 125.742188 208.394531 123.089844 C 209.363281 122.652344 208.527344 121.210938 207.558594 121.648438 C 201.851562 124.265625 196.175781 126.882812 190.46875 129.464844 C 189.96875 128.257812 189.402344 127.050781 188.699219 125.941406 C 191.46875 124.398438 194.242188 122.890625 197.042969 121.347656 C 199.847656 119.800781 202.753906 118.359375 205.355469 116.449219 C 206.222656 115.808594 205.390625 114.367188 204.523438 115.003906 C 201.917969 116.917969 199.015625 118.359375 196.210938 119.902344 C 193.40625 121.445312 190.601562 122.988281 187.796875 124.53125 C 187.296875 123.792969 186.761719 123.089844 186.164062 122.417969 C 192.503906 117.890625 198.78125 113.226562 205.355469 109.101562 C 206.257812 108.53125 205.421875 107.085938 204.523438 107.65625 C 197.84375 111.851562 191.46875 116.617188 185.027344 121.179688 C 184.527344 120.640625 183.992188 120.105469 183.425781 119.566406 C 184.761719 117.421875 186.761719 115.84375 188.667969 114.199219 C 190.769531 112.355469 192.90625 110.507812 195.007812 108.628906 C 195.808594 107.925781 194.640625 106.75 193.839844 107.457031 C 191.570312 109.4375 189.300781 111.449219 187.03125 113.429688 C 185.261719 114.972656 183.492188 116.480469 182.191406 118.425781 C 181.390625 117.722656 180.519531 117.085938 179.652344 116.449219 C 185.261719 109.703125 190.734375 102.894531 196.109375 95.949219 C 196.777344 95.109375 195.574219 93.902344 194.941406 94.773438 C 189.5 101.785156 183.960938 108.699219 178.285156 115.507812 C 177.382812 114.902344 176.449219 114.332031 175.515625 113.832031 C 176.882812 112.355469 178.183594 110.84375 179.453125 109.269531 C 180.019531 108.5625 180.589844 107.859375 181.121094 107.121094 C 181.488281 106.617188 181.890625 106.113281 182.257812 105.609375 C 182.390625 105.445312 182.722656 104.804688 182.957031 104.503906 C 182.992188 104.503906 183.023438 104.503906 183.058594 104.46875 C 183.089844 104.46875 183.125 104.4375 183.125 104.4375 C 183.558594 104.300781 183.824219 103.867188 183.691406 103.398438 C 183.691406 103.363281 183.660156 103.328125 183.660156 103.296875 C 183.527344 102.859375 183.089844 102.625 182.625 102.726562 C 182.089844 102.859375 181.855469 103.328125 181.523438 103.765625 C 180.65625 104.972656 179.753906 106.179688 178.820312 107.355469 C 177.285156 109.300781 175.648438 111.179688 173.945312 113.027344 C 173.3125 112.691406 172.675781 112.386719 172.042969 112.085938 C 176.25 105.445312 180.085938 98.566406 183.527344 91.519531 C 183.992188 90.546875 182.558594 89.707031 182.089844 90.683594 C 178.617188 97.792969 174.746094 104.738281 170.507812 111.414062 C 170.238281 111.316406 169.972656 111.179688 169.671875 111.078125 C 169.136719 110.878906 168.636719 110.710938 168.105469 110.542969 C 169.070312 108.027344 170.140625 105.578125 171.273438 103.128906 C 171.742188 102.15625 170.273438 101.316406 169.839844 102.289062 C 168.636719 104.839844 167.535156 107.457031 166.5 110.105469 C 165.632812 109.871094 164.765625 109.703125 163.898438 109.570312 C 164.632812 101.285156 166.035156 93.0625 168.035156 84.976562 C 168.304688 83.9375 166.703125 83.46875 166.433594 84.542969 C 164.398438 92.695312 163.03125 101.015625 162.261719 109.367188 C 161.496094 109.300781 160.691406 109.234375 159.890625 109.234375 C 159.691406 102.523438 159.824219 95.847656 160.257812 89.171875 C 160.324219 88.097656 158.65625 88.097656 158.589844 89.171875 C 158.15625 95.847656 158.023438 102.558594 158.222656 109.269531 C 156.988281 109.300781 155.753906 109.4375 154.550781 109.636719 C 153.550781 101.351562 152.882812 93.03125 152.480469 84.675781 C 152.449219 83.601562 150.78125 83.601562 150.8125 84.675781 C 151.179688 93.128906 151.882812 101.550781 152.914062 109.9375 C 152.347656 110.074219 151.8125 110.171875 151.246094 110.339844 C 149.277344 104.300781 147.308594 98.230469 145.339844 92.191406 C 145.003906 91.183594 143.402344 91.621094 143.734375 92.628906 C 145.707031 98.699219 147.675781 104.773438 149.644531 110.8125 C 149.042969 111.011719 148.476562 111.214844 147.875 111.449219 C 144.003906 104.269531 140.332031 96.988281 136.859375 89.574219 C 136.390625 88.601562 134.957031 89.441406 135.425781 90.414062 C 138.863281 97.726562 142.5 104.972656 146.339844 112.085938 C 145.304688 112.554688 144.335938 113.058594 143.335938 113.628906 C 140.199219 107.421875 136.660156 101.417969 132.753906 95.679688 C 132.152344 94.808594 130.71875 95.648438 131.320312 96.519531 C 135.257812 102.289062 138.796875 108.261719 141.933594 114.5 C 141.03125 115.105469 140.132812 115.710938 139.296875 116.414062 C 134.789062 109.503906 130.050781 102.792969 125.007812 96.285156 C 124.34375 95.445312 123.171875 96.621094 123.839844 97.457031 C 128.816406 103.933594 133.554688 110.609375 137.996094 117.488281 C 137.359375 118.058594 136.726562 118.628906 136.160156 119.230469 C 136.125 119.132812 136.058594 119.0625 135.992188 118.964844 C 132.585938 115.339844 129.046875 111.851562 125.445312 108.429688 C 124.675781 107.691406 123.472656 108.867188 124.273438 109.601562 C 127.878906 113.027344 131.417969 116.515625 134.824219 120.136719 C 134.921875 120.238281 135.023438 120.304688 135.125 120.339844 C 134.390625 121.144531 133.722656 121.984375 133.054688 122.890625 C 129.316406 120.339844 125.675781 117.589844 122.207031 114.667969 C 119.035156 111.984375 116.128906 108.796875 112.492188 106.71875 C 111.558594 106.179688 110.722656 107.625 111.65625 108.160156 C 115.496094 110.375 118.601562 113.832031 122.003906 116.648438 C 125.242188 119.332031 128.613281 121.882812 132.121094 124.230469 C 131.6875 124.867188 131.285156 125.507812 130.882812 126.175781 C 125.445312 122.351562 119.902344 118.59375 114.394531 114.871094 C 113.492188 114.265625 112.660156 115.710938 113.558594 116.3125 C 119.101562 120.039062 124.609375 123.792969 130.082031 127.621094 C 129.648438 128.425781 129.25 129.261719 128.914062 130.101562 C 125.84375 128.222656 122.171875 127.484375 118.835938 126.210938 C 114.761719 124.667969 110.824219 122.789062 106.984375 120.675781 C 105.984375 120.171875 105.148438 121.648438 106.082031 122.152344 Z M 106.082031 122.152344 " fill-opacity="1" fill-rule="nonzero"/><path fill="#e76f51" d="M 104.113281 130.070312 C 105.617188 130.335938 107.117188 130.640625 108.621094 130.90625 C 109.65625 131.109375 110.121094 129.5 109.054688 129.296875 C 107.550781 129.027344 106.050781 128.726562 104.546875 128.457031 C 103.511719 128.257812 103.078125 129.867188 104.113281 130.070312 Z M 104.113281 130.070312 " fill-opacity="1" fill-rule="nonzero"/><path fill="#e76f51" d="M 119.300781 105.410156 C 120.136719 105.914062 120.902344 106.484375 121.539062 107.222656 C 122.273438 108.027344 123.441406 106.851562 122.707031 106.046875 C 121.972656 105.207031 121.105469 104.503906 120.136719 103.96875 C 119.234375 103.429688 118.367188 104.90625 119.300781 105.410156 Z M 119.300781 105.410156 " fill-opacity="1" fill-rule="nonzero"/><g clip-path="url(#id2)"><path fill="#e76f51" d="M 152.480469 82.292969 C 152.316406 80.449219 152.113281 78.605469 151.949219 76.757812 C 151.847656 75.683594 150.179688 75.683594 150.277344 76.757812 C 150.445312 78.605469 150.644531 80.449219 150.8125 82.292969 C 150.914062 83.335938 152.582031 83.367188 152.480469 82.292969 Z M 152.480469 82.292969 " fill-opacity="1" fill-rule="nonzero"/></g><path fill="#e76f51" d="M 160.09375 86.621094 C 160.09375 85.785156 160.09375 84.945312 160.09375 84.105469 C 160.09375 83.03125 158.421875 83.03125 158.421875 84.105469 C 158.421875 84.945312 158.421875 85.785156 158.421875 86.621094 C 158.421875 87.730469 160.09375 87.730469 160.09375 86.621094 Z M 160.09375 86.621094 " fill-opacity="1" fill-rule="nonzero"/><path fill="#e76f51" d="M 172.511719 100.109375 C 172.878906 98.632812 173.34375 97.191406 173.878906 95.746094 C 174.277344 94.742188 172.644531 94.304688 172.277344 95.3125 C 171.707031 96.71875 171.273438 98.195312 170.90625 99.671875 C 170.675781 100.714844 172.277344 101.148438 172.511719 100.109375 Z M 172.511719 100.109375 " fill-opacity="1" fill-rule="nonzero"/><path fill="#e76f51" d="M 197.746094 106.550781 C 198.714844 105.609375 199.648438 104.671875 200.617188 103.730469 C 201.382812 102.960938 200.214844 101.785156 199.449219 102.558594 C 198.480469 103.496094 197.546875 104.4375 196.578125 105.375 C 195.808594 106.113281 196.976562 107.289062 197.746094 106.550781 Z M 197.746094 106.550781 " fill-opacity="1" fill-rule="nonzero"/><path fill="#e76f51" d="M 197.878906 92.894531 C 198.878906 91.65625 199.882812 90.414062 200.851562 89.171875 C 201.515625 88.332031 200.347656 87.160156 199.679688 87.996094 C 198.679688 89.238281 197.679688 90.480469 196.710938 91.722656 C 196.007812 92.558594 197.210938 93.734375 197.878906 92.894531 Z M 197.878906 92.894531 " fill-opacity="1" fill-rule="nonzero"/><path fill="#e76f51" d="M 211.097656 122.117188 C 212.832031 121.347656 214.570312 120.574219 216.339844 119.902344 C 217.339844 119.5 216.90625 117.890625 215.90625 118.292969 C 214 119.03125 212.132812 119.835938 210.261719 120.707031 C 209.296875 121.109375 210.128906 122.554688 211.097656 122.117188 Z M 211.097656 122.117188 " fill-opacity="1" fill-rule="nonzero"/><path fill="#e76f51" d="M 207.960938 129.332031 C 206.925781 129.597656 207.359375 131.210938 208.394531 130.941406 C 209.429688 130.671875 210.429688 130.503906 211.5 130.402344 C 212.566406 130.304688 212.566406 128.625 211.5 128.726562 C 210.296875 128.828125 209.128906 129.027344 207.960938 129.332031 Z M 207.960938 129.332031 " fill-opacity="1" fill-rule="nonzero"/><g clip-path="url(#id3)"><path fill="#e76f51" d="M 221.679688 151.472656 C 219.542969 151.574219 218.773438 150.464844 217.472656 149.058594 C 216.804688 148.320312 215.90625 148.050781 214.96875 148.453125 C 213.769531 148.992188 213.234375 150.398438 212.164062 151.136719 C 211.0625 151.910156 209.628906 152.246094 208.292969 152.109375 C 206.890625 151.976562 205.691406 151.339844 204.753906 150.300781 C 203.953125 149.394531 203.1875 148.253906 201.984375 147.851562 C 201.050781 147.546875 200.148438 147.78125 199.449219 148.421875 C 198.113281 149.628906 197.578125 151.035156 195.574219 151.441406 C 193.972656 151.742188 192.371094 151.304688 191.003906 150.464844 C 189.734375 149.695312 188.734375 147.984375 187.332031 147.546875 C 184.792969 146.777344 184.292969 150.398438 182.625 151.371094 C 181.054688 152.277344 179.1875 151.808594 177.75 150.871094 C 176.449219 150.03125 175.480469 148.554688 174.011719 148.050781 C 171.542969 147.246094 170.441406 149.5625 169.238281 151.203125 C 168.003906 152.882812 165.902344 153.453125 164.03125 152.511719 C 162.363281 151.675781 161.960938 150.265625 161.027344 148.824219 C 159.726562 146.710938 157.289062 147.78125 156.453125 149.695312 C 155.6875 151.441406 155.285156 153.015625 153.25 153.621094 C 151.515625 154.15625 149.710938 153.453125 148.507812 152.109375 C 147.109375 150.535156 146.90625 146.574219 143.835938 147.851562 C 141.03125 149.023438 141.96875 153.554688 138.496094 153.6875 C 136.757812 153.753906 135.324219 152.546875 134.390625 151.203125 C 133.65625 150.164062 133.253906 148.789062 132.21875 148.015625 C 130.25 146.574219 128.582031 148.285156 127.480469 149.863281 C 126.511719 151.238281 125.542969 152.3125 123.742188 152.378906 C 121.738281 152.445312 119.96875 151.371094 118.5 150.097656 C 117.53125 149.257812 116.632812 147.816406 115.230469 147.75 C 114.128906 147.683594 113.328125 148.519531 112.757812 149.359375 C 111.691406 150.902344 110.988281 152.246094 109.054688 152.78125 C 107.050781 153.386719 105.28125 152.648438 103.78125 151.339844 C 101.609375 149.460938 99.375 146.542969 96.136719 146.945312 C 93.664062 147.246094 91.894531 149.796875 92.996094 152.109375 C 93.464844 153.082031 94.902344 152.246094 94.433594 151.273438 C 93.933594 150.230469 94.800781 149.15625 95.734375 148.789062 C 96.601562 148.453125 97.503906 148.65625 98.304688 149.058594 C 99.839844 149.761719 100.976562 151.105469 102.210938 152.210938 C 104.082031 153.921875 106.25 155.0625 108.820312 154.59375 C 111.457031 154.089844 112.59375 152.445312 114.0625 150.398438 C 114.726562 149.460938 115.195312 149.257812 116.097656 150.132812 C 116.632812 150.667969 117.164062 151.171875 117.734375 151.640625 C 118.835938 152.546875 120.035156 153.316406 121.40625 153.753906 C 123.707031 154.457031 126.3125 153.988281 127.914062 152.109375 C 128.582031 151.304688 129.082031 150.097656 129.917969 149.492188 C 131.453125 148.386719 132.519531 151.574219 133.222656 152.511719 C 134.65625 154.425781 136.894531 155.800781 139.328125 155.296875 C 140.398438 155.097656 141.367188 154.558594 142.035156 153.722656 C 142.933594 152.582031 142.902344 150.835938 143.9375 149.828125 C 145.4375 148.351562 145.972656 151.441406 146.574219 152.378906 C 147.273438 153.453125 148.242188 154.359375 149.378906 154.894531 C 151.515625 155.933594 154.183594 155.566406 155.953125 153.957031 C 156.820312 153.152344 157.1875 152.210938 157.621094 151.171875 C 157.988281 150.265625 158.757812 148.65625 159.726562 150.0625 C 160.125 150.632812 160.324219 151.339844 160.761719 151.910156 C 162.296875 153.957031 164.800781 155.097656 167.335938 154.457031 C 168.503906 154.15625 169.503906 153.519531 170.238281 152.582031 C 170.90625 151.742188 171.742188 149.5625 173.011719 149.5625 C 174.277344 149.5625 175.816406 151.675781 176.847656 152.3125 C 177.984375 153.015625 179.285156 153.519531 180.621094 153.519531 C 181.722656 153.519531 182.824219 153.21875 183.757812 152.546875 C 184.726562 151.84375 185.128906 150.835938 185.796875 149.894531 C 186.429688 148.992188 187.03125 149.324219 187.730469 149.996094 C 188.199219 150.464844 188.699219 150.9375 189.234375 151.339844 C 190.367188 152.210938 191.703125 152.847656 193.105469 153.117188 C 195.777344 153.585938 198.246094 152.582031 199.882812 150.398438 C 201.515625 148.183594 202.953125 151.171875 204.222656 152.210938 C 205.121094 152.984375 206.222656 153.453125 207.359375 153.6875 C 209.730469 154.15625 212.332031 153.453125 214.035156 151.675781 C 214.636719 151.035156 215.203125 149.5625 216.371094 150.464844 C 216.90625 150.871094 217.238281 151.605469 217.808594 152.042969 C 218.910156 152.882812 220.242188 153.25 221.644531 153.152344 C 222.746094 153.082031 222.746094 151.40625 221.679688 151.472656 Z M 221.679688 151.472656 " fill-opacity="1" fill-rule="nonzero"/></g><g fill="#ffffff" fill-opacity="1"><g transform="translate(236.249985, 127.629664)"><g><path d="M 16.984375 0 L 1.265625 0 L 1.265625 -3.3125 L 6.90625 -9.015625 C 8.570312 -10.722656 9.660156 -11.90625 10.171875 -12.5625 C 10.691406 -13.226562 11.0625 -13.84375 11.28125 -14.40625 C 11.507812 -14.976562 11.625 -15.566406 11.625 -16.171875 C 11.625 -17.066406 11.375 -17.734375 10.875 -18.171875 C 10.382812 -18.617188 9.722656 -18.84375 8.890625 -18.84375 C 8.015625 -18.84375 7.164062 -18.640625 6.34375 -18.234375 C 5.53125 -17.835938 4.675781 -17.269531 3.78125 -16.53125 L 1.203125 -19.59375 C 2.304688 -20.539062 3.222656 -21.207031 3.953125 -21.59375 C 4.679688 -21.976562 5.472656 -22.273438 6.328125 -22.484375 C 7.191406 -22.703125 8.160156 -22.8125 9.234375 -22.8125 C 10.628906 -22.8125 11.863281 -22.550781 12.9375 -22.03125 C 14.019531 -21.519531 14.859375 -20.800781 15.453125 -19.875 C 16.046875 -18.957031 16.34375 -17.90625 16.34375 -16.71875 C 16.34375 -15.6875 16.160156 -14.710938 15.796875 -13.796875 C 15.441406 -12.890625 14.878906 -11.957031 14.109375 -11 C 13.347656 -10.050781 12.003906 -8.695312 10.078125 -6.9375 L 7.1875 -4.21875 L 7.1875 -4 L 16.984375 -4 Z M 16.984375 0 "/></g></g><g transform="translate(254.230208, 127.629664)"><g><path d="M 16.59375 0 L 14.96875 -5.359375 L 6.765625 -5.359375 L 5.140625 0 L 0 0 L 7.9375 -22.578125 L 13.765625 -22.578125 L 21.734375 0 Z M 13.828125 -9.359375 C 12.316406 -14.203125 11.46875 -16.941406 11.28125 -17.578125 C 11.09375 -18.210938 10.957031 -18.71875 10.875 -19.09375 C 10.53125 -17.78125 9.5625 -14.535156 7.96875 -9.359375 Z M 13.828125 -9.359375 "/></g></g><g transform="translate(275.963361, 127.629664)"><g><path d="M 2.828125 -22.484375 L 9.828125 -22.484375 C 13.015625 -22.484375 15.328125 -22.03125 16.765625 -21.125 C 18.210938 -20.21875 18.9375 -18.773438 18.9375 -16.796875 C 18.9375 -15.453125 18.617188 -14.347656 17.984375 -13.484375 C 17.359375 -12.628906 16.519531 -12.113281 15.46875 -11.9375 L 15.46875 -11.78125 C 16.894531 -11.46875 17.921875 -10.875 18.546875 -10 C 19.179688 -9.125 19.5 -7.960938 19.5 -6.515625 C 19.5 -4.472656 18.757812 -2.875 17.28125 -1.71875 C 15.800781 -0.570312 13.789062 0 11.25 0 L 2.828125 0 Z M 7.59375 -13.578125 L 10.359375 -13.578125 C 11.660156 -13.578125 12.597656 -13.773438 13.171875 -14.171875 C 13.753906 -14.578125 14.046875 -15.242188 14.046875 -16.171875 C 14.046875 -17.023438 13.726562 -17.640625 13.09375 -18.015625 C 12.46875 -18.390625 11.472656 -18.578125 10.109375 -18.578125 L 7.59375 -18.578125 Z M 7.59375 -9.796875 L 7.59375 -3.9375 L 10.703125 -3.9375 C 12.015625 -3.9375 12.984375 -4.1875 13.609375 -4.6875 C 14.234375 -5.1875 14.546875 -5.957031 14.546875 -7 C 14.546875 -8.863281 13.210938 -9.796875 10.546875 -9.796875 Z M 7.59375 -9.796875 "/></g></g><g transform="translate(297.127421, 127.629664)"><g/></g><g transform="translate(305.310038, 127.629664)"><g><path d="M 16.109375 -6.25 C 16.109375 -4.21875 15.375 -2.613281 13.90625 -1.4375 C 12.445312 -0.269531 10.414062 0.3125 7.8125 0.3125 C 5.414062 0.3125 3.296875 -0.140625 1.453125 -1.046875 L 1.453125 -5.46875 C 2.960938 -4.789062 4.242188 -4.3125 5.296875 -4.03125 C 6.347656 -3.757812 7.3125 -3.625 8.1875 -3.625 C 9.226562 -3.625 10.023438 -3.820312 10.578125 -4.21875 C 11.140625 -4.625 11.421875 -5.222656 11.421875 -6.015625 C 11.421875 -6.453125 11.296875 -6.84375 11.046875 -7.1875 C 10.804688 -7.53125 10.445312 -7.859375 9.96875 -8.171875 C 9.5 -8.492188 8.53125 -9.003906 7.0625 -9.703125 C 5.6875 -10.347656 4.65625 -10.96875 3.96875 -11.5625 C 3.28125 -12.15625 2.726562 -12.847656 2.3125 -13.640625 C 1.90625 -14.429688 1.703125 -15.351562 1.703125 -16.40625 C 1.703125 -18.394531 2.375 -19.957031 3.71875 -21.09375 C 5.070312 -22.238281 6.941406 -22.8125 9.328125 -22.8125 C 10.492188 -22.8125 11.609375 -22.671875 12.671875 -22.390625 C 13.734375 -22.117188 14.84375 -21.726562 16 -21.21875 L 14.453125 -17.515625 C 13.253906 -18.003906 12.265625 -18.347656 11.484375 -18.546875 C 10.703125 -18.742188 9.929688 -18.84375 9.171875 -18.84375 C 8.265625 -18.84375 7.570312 -18.628906 7.09375 -18.203125 C 6.613281 -17.785156 6.375 -17.238281 6.375 -16.5625 C 6.375 -16.144531 6.46875 -15.78125 6.65625 -15.46875 C 6.851562 -15.15625 7.164062 -14.851562 7.59375 -14.5625 C 8.019531 -14.269531 9.023438 -13.742188 10.609375 -12.984375 C 12.710938 -11.972656 14.15625 -10.960938 14.9375 -9.953125 C 15.71875 -8.941406 16.109375 -7.707031 16.109375 -6.25 Z M 16.109375 -6.25 "/></g></g><g transform="translate(322.659646, 127.629664)"><g><path d="M 6.203125 -8.625 C 6.203125 -6.925781 6.476562 -5.640625 7.03125 -4.765625 C 7.59375 -3.890625 8.503906 -3.453125 9.765625 -3.453125 C 11.015625 -3.453125 11.914062 -3.882812 12.46875 -4.75 C 13.019531 -5.625 13.296875 -6.914062 13.296875 -8.625 C 13.296875 -10.332031 13.015625 -11.609375 12.453125 -12.453125 C 11.898438 -13.304688 10.992188 -13.734375 9.734375 -13.734375 C 8.484375 -13.734375 7.582031 -13.3125 7.03125 -12.46875 C 6.476562 -11.625 6.203125 -10.34375 6.203125 -8.625 Z M 18.09375 -8.625 C 18.09375 -5.832031 17.351562 -3.644531 15.875 -2.0625 C 14.394531 -0.476562 12.335938 0.3125 9.703125 0.3125 C 8.054688 0.3125 6.601562 -0.046875 5.34375 -0.765625 C 4.082031 -1.492188 3.113281 -2.535156 2.4375 -3.890625 C 1.757812 -5.242188 1.421875 -6.820312 1.421875 -8.625 C 1.421875 -11.4375 2.148438 -13.617188 3.609375 -15.171875 C 5.078125 -16.734375 7.140625 -17.515625 9.796875 -17.515625 C 11.453125 -17.515625 12.910156 -17.15625 14.171875 -16.4375 C 15.429688 -15.71875 16.398438 -14.6875 17.078125 -13.34375 C 17.753906 -12 18.09375 -10.425781 18.09375 -8.625 Z M 18.09375 -8.625 "/></g></g><g transform="translate(342.162574, 127.629664)"><g><path d="M 7.15625 0 L 2.46875 0 L 2.46875 -23.9375 L 7.15625 -23.9375 Z M 7.15625 0 "/></g></g><g transform="translate(351.77561, 127.629664)"><g><path d="M 13.375 0 L 12.46875 -2.34375 L 12.34375 -2.34375 C 11.5625 -1.34375 10.75 -0.648438 9.90625 -0.265625 C 9.070312 0.117188 7.984375 0.3125 6.640625 0.3125 C 4.992188 0.3125 3.695312 -0.15625 2.75 -1.09375 C 1.800781 -2.039062 1.328125 -3.390625 1.328125 -5.140625 C 1.328125 -6.960938 1.960938 -8.304688 3.234375 -9.171875 C 4.515625 -10.035156 6.441406 -10.515625 9.015625 -10.609375 L 12 -10.703125 L 12 -11.453125 C 12 -13.203125 11.109375 -14.078125 9.328125 -14.078125 C 7.953125 -14.078125 6.332031 -13.660156 4.46875 -12.828125 L 2.921875 -16 C 4.898438 -17.03125 7.09375 -17.546875 9.5 -17.546875 C 11.8125 -17.546875 13.582031 -17.039062 14.8125 -16.03125 C 16.039062 -15.03125 16.65625 -13.503906 16.65625 -11.453125 L 16.65625 0 Z M 12 -7.96875 L 10.1875 -7.90625 C 8.820312 -7.863281 7.804688 -7.613281 7.140625 -7.15625 C 6.472656 -6.707031 6.140625 -6.023438 6.140625 -5.109375 C 6.140625 -3.785156 6.894531 -3.125 8.40625 -3.125 C 9.5 -3.125 10.367188 -3.4375 11.015625 -4.0625 C 11.671875 -4.6875 12 -5.515625 12 -6.546875 Z M 12 -7.96875 "/></g></g><g transform="translate(370.801731, 127.629664)"><g><path d="M 12.0625 -17.515625 C 12.695312 -17.515625 13.222656 -17.46875 13.640625 -17.375 L 13.296875 -12.984375 C 12.910156 -13.085938 12.445312 -13.140625 11.90625 -13.140625 C 10.40625 -13.140625 9.238281 -12.753906 8.40625 -11.984375 C 7.570312 -11.210938 7.15625 -10.132812 7.15625 -8.75 L 7.15625 0 L 2.46875 0 L 2.46875 -17.203125 L 6.015625 -17.203125 L 6.703125 -14.296875 L 6.9375 -14.296875 C 7.46875 -15.265625 8.1875 -16.039062 9.09375 -16.625 C 10 -17.21875 10.988281 -17.515625 12.0625 -17.515625 Z M 12.0625 -17.515625 "/></g></g></g></svg>